<mxfile host="Electron" agent="Mozilla/5.0 (Windows NT 10.0; Win64; x64) AppleWebKit/537.36 (KHTML, like Gecko) draw.io/26.0.16 Chrome/132.0.6834.196 Electron/34.2.0 Safari/537.36" version="26.0.16" pages="3">
  <diagram name="Context-Level DFD" id="9_mHV6mDYOqmCFkFlWri">
    <mxGraphModel dx="1050" dy="669" grid="1" gridSize="10" guides="1" tooltips="1" connect="1" arrows="1" fold="1" page="1" pageScale="1" pageWidth="850" pageHeight="1100" math="0" shadow="0">
      <root>
        <mxCell id="0" />
        <mxCell id="1" parent="0" />
        <mxCell id="TJH8ONQ5V0XpQaSHO4El-5" value="0." style="swimlane;childLayout=stackLayout;horizontal=1;startSize=30;horizontalStack=0;rounded=1;fontSize=14;fontStyle=0;strokeWidth=2;resizeParent=0;resizeLast=1;shadow=0;dashed=0;align=center;arcSize=4;whiteSpace=wrap;html=1;" parent="1" vertex="1">
          <mxGeometry x="1200" y="160" width="240" height="400" as="geometry" />
        </mxCell>
        <mxCell id="TJH8ONQ5V0XpQaSHO4El-6" value="&lt;div style=&quot;&quot;&gt;&lt;font style=&quot;font-size: 18px;&quot;&gt;&lt;br&gt;&lt;/font&gt;&lt;/div&gt;&lt;div style=&quot;&quot;&gt;&lt;font style=&quot;font-size: 18px;&quot;&gt;&lt;br&gt;&lt;/font&gt;&lt;/div&gt;&lt;div style=&quot;&quot;&gt;&lt;font style=&quot;font-size: 24px;&quot;&gt;&lt;br&gt;&lt;/font&gt;&lt;/div&gt;&lt;div style=&quot;&quot;&gt;&lt;font style=&quot;font-size: 24px;&quot;&gt;&lt;br&gt;&lt;/font&gt;&lt;/div&gt;&lt;div style=&quot;&quot;&gt;&lt;br&gt;&lt;/div&gt;&lt;div style=&quot;&quot;&gt;&lt;br&gt;&lt;/div&gt;&lt;div style=&quot;font-size: 21px;&quot;&gt;&lt;font style=&quot;font-size: 21px;&quot;&gt;&lt;span style=&quot;background-color: initial;&quot;&gt;Wyebank Driving School&lt;/span&gt;&lt;br&gt;&lt;/font&gt;&lt;/div&gt;&lt;div style=&quot;font-size: 21px;&quot;&gt;&lt;font style=&quot;font-size: 21px;&quot;&gt;Booking System.&lt;/font&gt;&lt;/div&gt;" style="align=center;strokeColor=none;fillColor=none;spacingLeft=4;fontSize=12;verticalAlign=top;resizable=0;rotatable=0;part=1;html=1;" parent="TJH8ONQ5V0XpQaSHO4El-5" vertex="1">
          <mxGeometry y="30" width="240" height="370" as="geometry" />
        </mxCell>
        <mxCell id="TJH8ONQ5V0XpQaSHO4El-9" value="&lt;font style=&quot;font-size: 20px;&quot;&gt;Client&lt;/font&gt;" style="html=1;whiteSpace=wrap;" parent="1" vertex="1">
          <mxGeometry x="840" y="160" width="120" height="400" as="geometry" />
        </mxCell>
        <mxCell id="TJH8ONQ5V0XpQaSHO4El-19" value="Client register" style="html=1;verticalAlign=bottom;endArrow=block;curved=0;rounded=0;exitX=1.007;exitY=0.1;exitDx=0;exitDy=0;exitPerimeter=0;" parent="1" source="TJH8ONQ5V0XpQaSHO4El-9" edge="1">
          <mxGeometry width="80" relative="1" as="geometry">
            <mxPoint x="1120" y="200" as="sourcePoint" />
            <mxPoint x="1200" y="200" as="targetPoint" />
          </mxGeometry>
        </mxCell>
        <mxCell id="TJH8ONQ5V0XpQaSHO4El-20" value="Client details request" style="html=1;verticalAlign=bottom;endArrow=block;curved=0;rounded=0;exitX=-0.01;exitY=0.107;exitDx=0;exitDy=0;exitPerimeter=0;" parent="1" edge="1">
          <mxGeometry width="80" relative="1" as="geometry">
            <mxPoint x="1197.6" y="220.00000000000003" as="sourcePoint" />
            <mxPoint x="960" y="220.41" as="targetPoint" />
          </mxGeometry>
        </mxCell>
        <mxCell id="TJH8ONQ5V0XpQaSHO4El-23" value="Registration confirmation" style="html=1;verticalAlign=bottom;endArrow=block;curved=0;rounded=0;entryX=0.985;entryY=0.276;entryDx=0;entryDy=0;entryPerimeter=0;exitX=0;exitY=0.25;exitDx=0;exitDy=0;" parent="1" source="TJH8ONQ5V0XpQaSHO4El-5" edge="1">
          <mxGeometry width="80" relative="1" as="geometry">
            <mxPoint x="1011.65" y="260" as="sourcePoint" />
            <mxPoint x="959.9999999999999" y="260.4" as="targetPoint" />
          </mxGeometry>
        </mxCell>
        <mxCell id="TJH8ONQ5V0XpQaSHO4El-24" value="Client details submission" style="html=1;verticalAlign=bottom;endArrow=block;curved=0;rounded=0;entryX=0;entryY=0.133;entryDx=0;entryDy=0;entryPerimeter=0;" parent="1" target="TJH8ONQ5V0XpQaSHO4El-6" edge="1">
          <mxGeometry width="80" relative="1" as="geometry">
            <mxPoint x="960" y="240" as="sourcePoint" />
            <mxPoint x="1040" y="240" as="targetPoint" />
            <mxPoint as="offset" />
          </mxGeometry>
        </mxCell>
        <mxCell id="TJH8ONQ5V0XpQaSHO4El-28" value="Booking enquiry" style="html=1;verticalAlign=bottom;endArrow=block;curved=0;rounded=0;" parent="1" edge="1">
          <mxGeometry width="80" relative="1" as="geometry">
            <mxPoint x="960" y="280" as="sourcePoint" />
            <mxPoint x="1200" y="280" as="targetPoint" />
          </mxGeometry>
        </mxCell>
        <mxCell id="TJH8ONQ5V0XpQaSHO4El-29" value="" style="html=1;verticalAlign=bottom;endArrow=block;curved=0;rounded=0;entryX=0.993;entryY=0.348;entryDx=0;entryDy=0;entryPerimeter=0;exitX=-0.01;exitY=0.297;exitDx=0;exitDy=0;exitPerimeter=0;" parent="1" edge="1">
          <mxGeometry width="80" relative="1" as="geometry">
            <mxPoint x="1198.37" y="299.89" as="sourcePoint" />
            <mxPoint x="960" y="299.20000000000005" as="targetPoint" />
          </mxGeometry>
        </mxCell>
        <mxCell id="TJH8ONQ5V0XpQaSHO4El-32" value="Booking details request" style="edgeLabel;html=1;align=center;verticalAlign=middle;resizable=0;points=[];" parent="TJH8ONQ5V0XpQaSHO4El-29" vertex="1" connectable="0">
          <mxGeometry x="0.0538" y="-10" relative="1" as="geometry">
            <mxPoint as="offset" />
          </mxGeometry>
        </mxCell>
        <mxCell id="TJH8ONQ5V0XpQaSHO4El-33" value="Booking details submission" style="html=1;verticalAlign=bottom;endArrow=block;curved=0;rounded=0;entryX=0;entryY=0.351;entryDx=0;entryDy=0;entryPerimeter=0;" parent="1" target="TJH8ONQ5V0XpQaSHO4El-6" edge="1">
          <mxGeometry width="80" relative="1" as="geometry">
            <mxPoint x="960" y="320" as="sourcePoint" />
            <mxPoint x="1040" y="320" as="targetPoint" />
          </mxGeometry>
        </mxCell>
        <mxCell id="TJH8ONQ5V0XpQaSHO4El-34" value="Booking confirmation" style="html=1;verticalAlign=bottom;endArrow=block;curved=0;rounded=0;entryX=0.993;entryY=0.45;entryDx=0;entryDy=0;entryPerimeter=0;exitX=-0.01;exitY=0.403;exitDx=0;exitDy=0;exitPerimeter=0;" parent="1" source="TJH8ONQ5V0XpQaSHO4El-6" target="TJH8ONQ5V0XpQaSHO4El-9" edge="1">
          <mxGeometry width="80" relative="1" as="geometry">
            <mxPoint x="1120" y="340" as="sourcePoint" />
            <mxPoint x="1200" y="340" as="targetPoint" />
          </mxGeometry>
        </mxCell>
        <mxCell id="TJH8ONQ5V0XpQaSHO4El-35" value="Payment status request" style="html=1;verticalAlign=bottom;endArrow=block;curved=0;rounded=0;entryX=1;entryY=0.5;entryDx=0;entryDy=0;exitX=-0.003;exitY=0.459;exitDx=0;exitDy=0;exitPerimeter=0;" parent="1" source="TJH8ONQ5V0XpQaSHO4El-6" target="TJH8ONQ5V0XpQaSHO4El-9" edge="1">
          <mxGeometry width="80" relative="1" as="geometry">
            <mxPoint x="1110" y="359.5" as="sourcePoint" />
            <mxPoint x="1190" y="359.5" as="targetPoint" />
          </mxGeometry>
        </mxCell>
        <mxCell id="TJH8ONQ5V0XpQaSHO4El-36" value="Payment status" style="html=1;verticalAlign=bottom;endArrow=block;curved=0;rounded=0;" parent="1" edge="1">
          <mxGeometry width="80" relative="1" as="geometry">
            <mxPoint x="960" y="380" as="sourcePoint" />
            <mxPoint x="1200" y="380" as="targetPoint" />
            <mxPoint as="offset" />
          </mxGeometry>
        </mxCell>
        <mxCell id="TJH8ONQ5V0XpQaSHO4El-37" value="Booking Schedule report" style="html=1;verticalAlign=bottom;endArrow=block;curved=0;rounded=0;exitX=-0.003;exitY=0.565;exitDx=0;exitDy=0;exitPerimeter=0;" parent="1" source="TJH8ONQ5V0XpQaSHO4El-6" edge="1">
          <mxGeometry width="80" relative="1" as="geometry">
            <mxPoint x="1050" y="400" as="sourcePoint" />
            <mxPoint x="960" y="399" as="targetPoint" />
          </mxGeometry>
        </mxCell>
        <mxCell id="TJH8ONQ5V0XpQaSHO4El-38" value="&lt;font style=&quot;font-size: 20px;&quot;&gt;Instructor&lt;/font&gt;" style="html=1;whiteSpace=wrap;" parent="1" vertex="1">
          <mxGeometry x="1260" y="680" width="120" height="400" as="geometry" />
        </mxCell>
        <mxCell id="TJH8ONQ5V0XpQaSHO4El-39" value="" style="html=1;verticalAlign=bottom;endArrow=block;curved=0;rounded=0;" parent="1" edge="1">
          <mxGeometry x="-0.0024" width="80" relative="1" as="geometry">
            <mxPoint x="1360" y="680" as="sourcePoint" />
            <mxPoint x="1360" y="560" as="targetPoint" />
            <mxPoint as="offset" />
          </mxGeometry>
        </mxCell>
        <mxCell id="TJH8ONQ5V0XpQaSHO4El-43" value="Client&lt;div&gt;Scedule&lt;/div&gt;&lt;div&gt;Request&lt;/div&gt;" style="edgeLabel;html=1;align=center;verticalAlign=middle;resizable=0;points=[];" parent="TJH8ONQ5V0XpQaSHO4El-39" vertex="1" connectable="0">
          <mxGeometry x="-0.4833" relative="1" as="geometry">
            <mxPoint as="offset" />
          </mxGeometry>
        </mxCell>
        <mxCell id="TJH8ONQ5V0XpQaSHO4El-40" value="" style="html=1;verticalAlign=bottom;endArrow=block;curved=0;rounded=0;entryX=0.5;entryY=0;entryDx=0;entryDy=0;exitX=0.5;exitY=1;exitDx=0;exitDy=0;" parent="1" edge="1">
          <mxGeometry width="80" relative="1" as="geometry">
            <mxPoint x="1319.5" y="560" as="sourcePoint" />
            <mxPoint x="1319.5" y="680" as="targetPoint" />
          </mxGeometry>
        </mxCell>
        <mxCell id="TJH8ONQ5V0XpQaSHO4El-42" value="Client&lt;div&gt;Schedule&lt;/div&gt;&lt;div&gt;Sent&lt;/div&gt;" style="edgeLabel;html=1;align=center;verticalAlign=middle;resizable=0;points=[];" parent="TJH8ONQ5V0XpQaSHO4El-40" vertex="1" connectable="0">
          <mxGeometry x="-0.45" y="-1" relative="1" as="geometry">
            <mxPoint as="offset" />
          </mxGeometry>
        </mxCell>
        <mxCell id="TJH8ONQ5V0XpQaSHO4El-41" value="Client&lt;div&gt;Schedule&lt;/div&gt;&lt;div&gt;Update&lt;span style=&quot;white-space: pre;&quot;&gt;&#x9;&lt;/span&gt;&lt;/div&gt;" style="html=1;verticalAlign=bottom;endArrow=block;curved=0;rounded=0;entryX=0.378;entryY=1.004;entryDx=0;entryDy=0;entryPerimeter=0;" parent="1" edge="1">
          <mxGeometry x="-0.6875" width="80" relative="1" as="geometry">
            <mxPoint x="1280.28" y="678.52" as="sourcePoint" />
            <mxPoint x="1279.9999999999998" y="560" as="targetPoint" />
            <mxPoint as="offset" />
          </mxGeometry>
        </mxCell>
        <mxCell id="TJH8ONQ5V0XpQaSHO4El-44" value="&lt;font style=&quot;font-size: 20px;&quot;&gt;Manager&lt;/font&gt;" style="html=1;whiteSpace=wrap;" parent="1" vertex="1">
          <mxGeometry x="1680" y="160" width="120" height="400" as="geometry" />
        </mxCell>
        <mxCell id="TJH8ONQ5V0XpQaSHO4El-55" value="Weekly report request" style="html=1;verticalAlign=bottom;endArrow=block;curved=0;rounded=0;entryX=0.998;entryY=0.027;entryDx=0;entryDy=0;entryPerimeter=0;exitX=-0.003;exitY=0.102;exitDx=0;exitDy=0;exitPerimeter=0;" parent="1" source="TJH8ONQ5V0XpQaSHO4El-44" target="TJH8ONQ5V0XpQaSHO4El-6" edge="1">
          <mxGeometry width="80" relative="1" as="geometry">
            <mxPoint x="1490" y="200" as="sourcePoint" />
            <mxPoint x="1570" y="200" as="targetPoint" />
          </mxGeometry>
        </mxCell>
        <mxCell id="TJH8ONQ5V0XpQaSHO4El-56" value="Weekly report sent" style="html=1;verticalAlign=bottom;endArrow=block;curved=0;rounded=0;entryX=0;entryY=0.15;entryDx=0;entryDy=0;entryPerimeter=0;" parent="1" target="TJH8ONQ5V0XpQaSHO4El-44" edge="1">
          <mxGeometry width="80" relative="1" as="geometry">
            <mxPoint x="1440" y="220" as="sourcePoint" />
            <mxPoint x="1520" y="220" as="targetPoint" />
          </mxGeometry>
        </mxCell>
        <mxCell id="zWV9kCAMqsHdOSjxvC8m-1" value="Payment status request" style="html=1;verticalAlign=bottom;endArrow=block;curved=0;rounded=0;exitX=0.001;exitY=0.199;exitDx=0;exitDy=0;exitPerimeter=0;" parent="1" source="TJH8ONQ5V0XpQaSHO4El-44" edge="1">
          <mxGeometry width="80" relative="1" as="geometry">
            <mxPoint x="1520" y="240" as="sourcePoint" />
            <mxPoint x="1441" y="238" as="targetPoint" />
          </mxGeometry>
        </mxCell>
        <mxCell id="zWV9kCAMqsHdOSjxvC8m-2" value="Payment Status" style="html=1;verticalAlign=bottom;endArrow=block;curved=0;rounded=0;entryX=0;entryY=0.25;entryDx=0;entryDy=0;" parent="1" target="TJH8ONQ5V0XpQaSHO4El-44" edge="1">
          <mxGeometry width="80" relative="1" as="geometry">
            <mxPoint x="1440" y="260" as="sourcePoint" />
            <mxPoint x="1520" y="260" as="targetPoint" />
          </mxGeometry>
        </mxCell>
      </root>
    </mxGraphModel>
  </diagram>
  <diagram id="h29gTIoK2kNqb1uIxXb2" name="Level-0 DFD">
    <mxGraphModel dx="2704" dy="669" grid="1" gridSize="10" guides="1" tooltips="1" connect="1" arrows="1" fold="1" page="1" pageScale="1" pageWidth="1654" pageHeight="2336" math="0" shadow="0">
      <root>
        <mxCell id="0" />
        <mxCell id="1" parent="0" />
        <mxCell id="RNcLBntZl2BHGZEEgZLp-1" value="1.0" style="swimlane;childLayout=stackLayout;horizontal=1;startSize=20;horizontalStack=0;rounded=1;fontSize=14;fontStyle=0;strokeWidth=2;resizeParent=0;resizeLast=1;shadow=0;dashed=0;align=center;arcSize=4;whiteSpace=wrap;html=1;" parent="1" vertex="1">
          <mxGeometry x="747" y="160" width="160" height="140" as="geometry" />
        </mxCell>
        <mxCell id="RNcLBntZl2BHGZEEgZLp-2" value="&lt;div style=&quot;font-size: 20px;&quot;&gt;&lt;br&gt;&lt;/div&gt;&lt;div style=&quot;font-size: 20px;&quot;&gt;&lt;font style=&quot;font-size: 20px;&quot;&gt;Register Client&lt;/font&gt;&lt;/div&gt;" style="align=center;strokeColor=none;fillColor=none;spacingLeft=4;fontSize=12;verticalAlign=top;resizable=0;rotatable=0;part=1;html=1;" parent="RNcLBntZl2BHGZEEgZLp-1" vertex="1">
          <mxGeometry y="20" width="160" height="120" as="geometry" />
        </mxCell>
        <mxCell id="RNcLBntZl2BHGZEEgZLp-3" value="&lt;font style=&quot;font-size: 18px;&quot;&gt;Client&lt;/font&gt;" style="html=1;whiteSpace=wrap;" parent="1" vertex="1">
          <mxGeometry x="150" y="182.5" width="190" height="95" as="geometry" />
        </mxCell>
        <mxCell id="eXnH5dOhrDXt4Sco5O1Z-2" value="Client details request" style="html=1;verticalAlign=bottom;endArrow=block;curved=0;rounded=0;" parent="1" edge="1">
          <mxGeometry width="80" relative="1" as="geometry">
            <mxPoint x="747" y="190" as="sourcePoint" />
            <mxPoint x="340" y="190" as="targetPoint" />
          </mxGeometry>
        </mxCell>
        <mxCell id="eXnH5dOhrDXt4Sco5O1Z-3" value="Client details" style="html=1;verticalAlign=bottom;endArrow=block;curved=0;rounded=0;entryX=0;entryY=0.25;entryDx=0;entryDy=0;" parent="1" edge="1">
          <mxGeometry width="80" relative="1" as="geometry">
            <mxPoint x="340" y="220" as="sourcePoint" />
            <mxPoint x="747" y="220" as="targetPoint" />
          </mxGeometry>
        </mxCell>
        <mxCell id="eXnH5dOhrDXt4Sco5O1Z-4" value="Msg: Registration complete" style="html=1;verticalAlign=bottom;endArrow=block;curved=0;rounded=0;exitX=0;exitY=0.5;exitDx=0;exitDy=0;" parent="1" edge="1">
          <mxGeometry width="80" relative="1" as="geometry">
            <mxPoint x="747" y="250.59" as="sourcePoint" />
            <mxPoint x="340" y="250" as="targetPoint" />
          </mxGeometry>
        </mxCell>
        <mxCell id="eXnH5dOhrDXt4Sco5O1Z-5" value="D1&lt;span style=&quot;white-space: pre;&quot;&gt;&#x9;&lt;/span&gt;&amp;nbsp;Client info" style="html=1;dashed=0;whiteSpace=wrap;shape=mxgraph.dfd.dataStoreID;align=left;spacingLeft=3;points=[[0,0],[0.5,0],[1,0],[0,0.5],[1,0.5],[0,1],[0.5,1],[1,1]];" parent="1" vertex="1">
          <mxGeometry x="480" y="370" width="130" height="30" as="geometry" />
        </mxCell>
        <mxCell id="eXnH5dOhrDXt4Sco5O1Z-6" value="" style="html=1;verticalAlign=bottom;endArrow=block;curved=0;rounded=0;entryX=0.614;entryY=0.014;entryDx=0;entryDy=0;entryPerimeter=0;exitX=0.339;exitY=0.993;exitDx=0;exitDy=0;exitPerimeter=0;" parent="1" source="RNcLBntZl2BHGZEEgZLp-2" target="eXnH5dOhrDXt4Sco5O1Z-5" edge="1">
          <mxGeometry width="80" relative="1" as="geometry">
            <mxPoint x="840" y="350" as="sourcePoint" />
            <mxPoint x="680" y="400" as="targetPoint" />
            <Array as="points">
              <mxPoint x="800" y="350" />
              <mxPoint x="560" y="350" />
            </Array>
          </mxGeometry>
        </mxCell>
        <mxCell id="eXnH5dOhrDXt4Sco5O1Z-7" value="Client details" style="edgeLabel;html=1;align=center;verticalAlign=middle;resizable=0;points=[];" parent="eXnH5dOhrDXt4Sco5O1Z-6" vertex="1" connectable="0">
          <mxGeometry x="-0.1051" y="-2" relative="1" as="geometry">
            <mxPoint x="-1" as="offset" />
          </mxGeometry>
        </mxCell>
        <mxCell id="eXnH5dOhrDXt4Sco5O1Z-8" value="2.0" style="swimlane;childLayout=stackLayout;horizontal=1;startSize=20;horizontalStack=0;rounded=1;fontSize=14;fontStyle=0;strokeWidth=2;resizeParent=0;resizeLast=1;shadow=0;dashed=0;align=center;arcSize=4;whiteSpace=wrap;html=1;" parent="1" vertex="1">
          <mxGeometry x="270" y="470" width="160" height="120" as="geometry" />
        </mxCell>
        <mxCell id="eXnH5dOhrDXt4Sco5O1Z-11" value="&lt;font style=&quot;font-size: 20px;&quot;&gt;Make Booking&lt;/font&gt;" style="text;html=1;align=center;verticalAlign=middle;resizable=0;points=[];autosize=1;strokeColor=none;fillColor=none;" parent="1" vertex="1">
          <mxGeometry x="275" y="513" width="150" height="40" as="geometry" />
        </mxCell>
        <mxCell id="eXnH5dOhrDXt4Sco5O1Z-12" value="Client Details" style="html=1;verticalAlign=bottom;endArrow=block;curved=0;rounded=0;exitX=0.31;exitY=1.112;exitDx=0;exitDy=0;exitPerimeter=0;entryX=1;entryY=0.25;entryDx=0;entryDy=0;" parent="1" source="eXnH5dOhrDXt4Sco5O1Z-5" target="eXnH5dOhrDXt4Sco5O1Z-8" edge="1">
          <mxGeometry width="80" relative="1" as="geometry">
            <mxPoint x="520" y="440" as="sourcePoint" />
            <mxPoint x="600" y="440" as="targetPoint" />
            <Array as="points">
              <mxPoint x="520" y="500" />
            </Array>
          </mxGeometry>
        </mxCell>
        <mxCell id="eXnH5dOhrDXt4Sco5O1Z-13" value="D2&amp;nbsp;&lt;span style=&quot;white-space: pre;&quot;&gt;&#x9;&lt;/span&gt;&amp;nbsp;Date" style="html=1;dashed=0;whiteSpace=wrap;shape=mxgraph.dfd.dataStoreID;align=left;spacingLeft=3;points=[[0,0],[0.5,0],[1,0],[0,0.5],[1,0.5],[0,1],[0.5,1],[1,1]];" parent="1" vertex="1">
          <mxGeometry x="40" y="390" width="130" height="30" as="geometry" />
        </mxCell>
        <mxCell id="eXnH5dOhrDXt4Sco5O1Z-14" value="Booking request" style="html=1;verticalAlign=bottom;endArrow=block;curved=0;rounded=0;entryX=0.058;entryY=0;entryDx=0;entryDy=0;entryPerimeter=0;exitX=1;exitY=0.921;exitDx=0;exitDy=0;exitPerimeter=0;" parent="1" source="RNcLBntZl2BHGZEEgZLp-3" edge="1">
          <mxGeometry width="80" relative="1" as="geometry">
            <mxPoint x="400.72" y="277.5" as="sourcePoint" />
            <mxPoint x="400" y="467.5" as="targetPoint" />
            <Array as="points">
              <mxPoint x="400" y="270" />
              <mxPoint x="400.72" y="347.5" />
            </Array>
          </mxGeometry>
        </mxCell>
        <mxCell id="eXnH5dOhrDXt4Sco5O1Z-15" value="Available dates" style="html=1;verticalAlign=bottom;endArrow=block;curved=0;rounded=0;entryX=0;entryY=0.25;entryDx=0;entryDy=0;" parent="1" target="eXnH5dOhrDXt4Sco5O1Z-8" edge="1">
          <mxGeometry width="80" relative="1" as="geometry">
            <mxPoint x="150" y="420" as="sourcePoint" />
            <mxPoint x="230" y="500" as="targetPoint" />
            <Array as="points">
              <mxPoint x="150" y="500" />
            </Array>
          </mxGeometry>
        </mxCell>
        <mxCell id="eXnH5dOhrDXt4Sco5O1Z-16" value="Available dates&lt;div&gt;and time&lt;/div&gt;" style="html=1;verticalAlign=bottom;endArrow=block;curved=0;rounded=0;" parent="1" edge="1">
          <mxGeometry width="80" relative="1" as="geometry">
            <mxPoint x="350" y="470" as="sourcePoint" />
            <mxPoint x="340" y="277.5" as="targetPoint" />
            <Array as="points">
              <mxPoint x="350" y="277.5" />
            </Array>
          </mxGeometry>
        </mxCell>
        <mxCell id="eXnH5dOhrDXt4Sco5O1Z-17" value="D3&amp;nbsp;&lt;span style=&quot;white-space: pre;&quot;&gt;&#x9;&lt;/span&gt;&amp;nbsp;Time" style="html=1;dashed=0;whiteSpace=wrap;shape=mxgraph.dfd.dataStoreID;align=left;spacingLeft=3;points=[[0,0],[0.5,0],[1,0],[0,0.5],[1,0.5],[0,1],[0.5,1],[1,1]];" parent="1" vertex="1">
          <mxGeometry x="50" y="710" width="100" height="30" as="geometry" />
        </mxCell>
        <mxCell id="eXnH5dOhrDXt4Sco5O1Z-18" value="Available time" style="html=1;verticalAlign=bottom;endArrow=block;curved=0;rounded=0;" parent="1" edge="1">
          <mxGeometry width="80" relative="1" as="geometry">
            <mxPoint x="120" y="710" as="sourcePoint" />
            <mxPoint x="270" y="520" as="targetPoint" />
            <Array as="points">
              <mxPoint x="120" y="640" />
              <mxPoint x="120" y="520" />
            </Array>
          </mxGeometry>
        </mxCell>
        <mxCell id="eXnH5dOhrDXt4Sco5O1Z-19" value="" style="html=1;verticalAlign=bottom;endArrow=block;curved=0;rounded=0;exitX=0.792;exitY=1.001;exitDx=0;exitDy=0;exitPerimeter=0;" parent="1" edge="1">
          <mxGeometry width="80" relative="1" as="geometry">
            <mxPoint x="310.48" y="277.595" as="sourcePoint" />
            <mxPoint x="310" y="470" as="targetPoint" />
          </mxGeometry>
        </mxCell>
        <mxCell id="eXnH5dOhrDXt4Sco5O1Z-20" value="Booking details" style="edgeLabel;html=1;align=center;verticalAlign=middle;resizable=0;points=[];" parent="eXnH5dOhrDXt4Sco5O1Z-19" vertex="1" connectable="0">
          <mxGeometry x="0.5422" y="-2" relative="1" as="geometry">
            <mxPoint as="offset" />
          </mxGeometry>
        </mxCell>
        <mxCell id="eXnH5dOhrDXt4Sco5O1Z-21" value="Msg:Booking confirmation" style="html=1;verticalAlign=bottom;endArrow=block;curved=0;rounded=0;exitX=-0.01;exitY=0.163;exitDx=0;exitDy=0;exitPerimeter=0;entryX=0.467;entryY=1.009;entryDx=0;entryDy=0;entryPerimeter=0;" parent="1" source="eXnH5dOhrDXt4Sco5O1Z-8" target="RNcLBntZl2BHGZEEgZLp-3" edge="1">
          <mxGeometry width="80" relative="1" as="geometry">
            <mxPoint x="260" y="480" as="sourcePoint" />
            <mxPoint x="260" y="290" as="targetPoint" />
            <Array as="points">
              <mxPoint x="240" y="490" />
            </Array>
          </mxGeometry>
        </mxCell>
        <mxCell id="eXnH5dOhrDXt4Sco5O1Z-22" value="D4&lt;span style=&quot;white-space: pre;&quot;&gt;&#x9;&lt;/span&gt;&amp;nbsp;Instructor info" style="html=1;dashed=0;whiteSpace=wrap;shape=mxgraph.dfd.dataStoreID;align=left;spacingLeft=3;points=[[0,0],[0.5,0],[1,0],[0,0.5],[1,0.5],[0,1],[0.5,1],[1,1]];" parent="1" vertex="1">
          <mxGeometry x="220" y="710" width="110" height="30" as="geometry" />
        </mxCell>
        <mxCell id="eXnH5dOhrDXt4Sco5O1Z-23" value="instructor details" style="html=1;verticalAlign=bottom;endArrow=block;curved=0;rounded=0;exitX=0.364;exitY=-0.04;exitDx=0;exitDy=0;exitPerimeter=0;" parent="1" source="eXnH5dOhrDXt4Sco5O1Z-22" edge="1">
          <mxGeometry width="80" relative="1" as="geometry">
            <mxPoint x="330" y="680" as="sourcePoint" />
            <mxPoint x="270" y="580" as="targetPoint" />
            <Array as="points">
              <mxPoint x="260" y="580" />
            </Array>
          </mxGeometry>
        </mxCell>
        <mxCell id="eXnH5dOhrDXt4Sco5O1Z-24" value="3.0" style="swimlane;childLayout=stackLayout;horizontal=1;startSize=17;horizontalStack=0;rounded=1;fontSize=14;fontStyle=0;strokeWidth=2;resizeParent=0;resizeLast=1;shadow=0;dashed=0;align=center;arcSize=4;whiteSpace=wrap;html=1;" parent="1" vertex="1">
          <mxGeometry x="640" y="520" width="170" height="120" as="geometry" />
        </mxCell>
        <mxCell id="eXnH5dOhrDXt4Sco5O1Z-28" value="&lt;font style=&quot;font-size: 16px;&quot;&gt;View Payment Status&lt;/font&gt;" style="text;html=1;align=center;verticalAlign=middle;resizable=0;points=[];autosize=1;strokeColor=none;fillColor=none;" parent="eXnH5dOhrDXt4Sco5O1Z-24" vertex="1">
          <mxGeometry y="17" width="170" height="103" as="geometry" />
        </mxCell>
        <mxCell id="eXnH5dOhrDXt4Sco5O1Z-26" value="Booking details" style="html=1;verticalAlign=bottom;endArrow=block;curved=0;rounded=0;" parent="1" edge="1">
          <mxGeometry width="80" relative="1" as="geometry">
            <mxPoint x="380" y="590" as="sourcePoint" />
            <mxPoint x="400" y="720" as="targetPoint" />
            <Array as="points">
              <mxPoint x="380" y="720" />
            </Array>
          </mxGeometry>
        </mxCell>
        <mxCell id="eXnH5dOhrDXt4Sco5O1Z-27" value="D5&amp;nbsp;&lt;span style=&quot;white-space: pre;&quot;&gt;&#x9;&lt;/span&gt;&amp;nbsp;Booking info" style="html=1;dashed=0;whiteSpace=wrap;shape=mxgraph.dfd.dataStoreID;align=left;spacingLeft=3;points=[[0,0],[0.5,0],[1,0],[0,0.5],[1,0.5],[0,1],[0.5,1],[1,1]];" parent="1" vertex="1">
          <mxGeometry x="400" y="710" width="110" height="30" as="geometry" />
        </mxCell>
        <mxCell id="eXnH5dOhrDXt4Sco5O1Z-29" value="Payment status" style="html=1;verticalAlign=bottom;endArrow=block;curved=0;rounded=0;exitX=0.5;exitY=0;exitDx=0;exitDy=0;" parent="1" source="eXnH5dOhrDXt4Sco5O1Z-27" edge="1">
          <mxGeometry width="80" relative="1" as="geometry">
            <mxPoint x="500" y="620" as="sourcePoint" />
            <mxPoint x="640" y="580" as="targetPoint" />
            <Array as="points">
              <mxPoint x="455" y="580" />
            </Array>
          </mxGeometry>
        </mxCell>
        <mxCell id="eXnH5dOhrDXt4Sco5O1Z-30" value="&lt;font style=&quot;font-size: 20px;&quot;&gt;Manager&lt;/font&gt;" style="html=1;whiteSpace=wrap;" parent="1" vertex="1">
          <mxGeometry x="960" y="380" width="190" height="100" as="geometry" />
        </mxCell>
        <mxCell id="eXnH5dOhrDXt4Sco5O1Z-31" value="Payment staus request" style="html=1;verticalAlign=bottom;endArrow=block;curved=0;rounded=0;" parent="1" edge="1">
          <mxGeometry width="80" relative="1" as="geometry">
            <mxPoint x="960" y="460" as="sourcePoint" />
            <mxPoint x="810" y="542" as="targetPoint" />
            <Array as="points">
              <mxPoint x="920" y="460" />
              <mxPoint x="920" y="542" />
            </Array>
          </mxGeometry>
        </mxCell>
        <mxCell id="eXnH5dOhrDXt4Sco5O1Z-32" value="Payment status" style="html=1;verticalAlign=bottom;endArrow=block;curved=0;rounded=0;" parent="1" edge="1">
          <mxGeometry width="80" relative="1" as="geometry">
            <mxPoint x="810" y="570" as="sourcePoint" />
            <mxPoint x="1000" y="480" as="targetPoint" />
            <Array as="points">
              <mxPoint x="1000" y="570" />
            </Array>
          </mxGeometry>
        </mxCell>
        <mxCell id="eXnH5dOhrDXt4Sco5O1Z-33" value="Payment status update" style="html=1;verticalAlign=bottom;endArrow=block;curved=0;rounded=0;entryX=1;entryY=0.511;entryDx=0;entryDy=0;entryPerimeter=0;" parent="1" target="eXnH5dOhrDXt4Sco5O1Z-28" edge="1">
          <mxGeometry width="80" relative="1" as="geometry">
            <mxPoint x="1020" y="480" as="sourcePoint" />
            <mxPoint x="1017" y="600" as="targetPoint" />
            <Array as="points">
              <mxPoint x="1020" y="590" />
            </Array>
          </mxGeometry>
        </mxCell>
        <mxCell id="eXnH5dOhrDXt4Sco5O1Z-34" value="Payment status update" style="html=1;verticalAlign=bottom;endArrow=block;curved=0;rounded=0;exitX=0.134;exitY=1.008;exitDx=0;exitDy=0;exitPerimeter=0;entryX=0.818;entryY=0.04;entryDx=0;entryDy=0;entryPerimeter=0;" parent="1" source="eXnH5dOhrDXt4Sco5O1Z-28" target="eXnH5dOhrDXt4Sco5O1Z-27" edge="1">
          <mxGeometry width="80" relative="1" as="geometry">
            <mxPoint x="660" y="690" as="sourcePoint" />
            <mxPoint x="740" y="690" as="targetPoint" />
            <Array as="points">
              <mxPoint x="663" y="690" />
              <mxPoint x="490" y="690" />
            </Array>
          </mxGeometry>
        </mxCell>
        <mxCell id="Ee9hBY-2dXuZXshDiQHQ-1" value="4.0" style="swimlane;childLayout=stackLayout;horizontal=1;startSize=20;horizontalStack=0;rounded=1;fontSize=14;fontStyle=0;strokeWidth=2;resizeParent=0;resizeLast=1;shadow=0;dashed=0;align=center;arcSize=4;whiteSpace=wrap;html=1;" parent="1" vertex="1">
          <mxGeometry x="280" y="810" width="160" height="120" as="geometry" />
        </mxCell>
        <mxCell id="Ee9hBY-2dXuZXshDiQHQ-2" value="&lt;div style=&quot;font-size: 17px;&quot;&gt;&lt;br&gt;&lt;/div&gt;&lt;div style=&quot;font-size: 17px;&quot;&gt;&lt;font style=&quot;font-size: 17px;&quot;&gt;Generate Client&lt;/font&gt;&lt;/div&gt;&lt;div style=&quot;font-size: 17px;&quot;&gt;&lt;font style=&quot;font-size: 17px;&quot;&gt;Booking Schedule&lt;/font&gt;&lt;/div&gt;" style="align=center;strokeColor=none;fillColor=none;spacingLeft=4;fontSize=12;verticalAlign=top;resizable=0;rotatable=0;part=1;html=1;" parent="Ee9hBY-2dXuZXshDiQHQ-1" vertex="1">
          <mxGeometry y="20" width="160" height="100" as="geometry" />
        </mxCell>
        <mxCell id="Ee9hBY-2dXuZXshDiQHQ-3" value="Booking details" style="html=1;verticalAlign=bottom;endArrow=block;curved=0;rounded=0;exitX=0.425;exitY=1.053;exitDx=0;exitDy=0;exitPerimeter=0;entryX=0.75;entryY=0;entryDx=0;entryDy=0;" parent="1" source="eXnH5dOhrDXt4Sco5O1Z-27" target="Ee9hBY-2dXuZXshDiQHQ-1" edge="1">
          <mxGeometry width="80" relative="1" as="geometry">
            <mxPoint x="450" y="770" as="sourcePoint" />
            <mxPoint x="530" y="770" as="targetPoint" />
            <Array as="points">
              <mxPoint x="447" y="770" />
              <mxPoint x="400" y="770" />
            </Array>
          </mxGeometry>
        </mxCell>
        <mxCell id="Ee9hBY-2dXuZXshDiQHQ-4" value="&lt;font style=&quot;font-size: 18px;&quot;&gt;Instructor&lt;/font&gt;" style="html=1;whiteSpace=wrap;" parent="1" vertex="1">
          <mxGeometry x="160" y="1010" width="190" height="100" as="geometry" />
        </mxCell>
        <mxCell id="Ee9hBY-2dXuZXshDiQHQ-5" value="Schedule request&amp;nbsp;" style="html=1;verticalAlign=bottom;endArrow=block;curved=0;rounded=0;exitX=0.688;exitY=-0.036;exitDx=0;exitDy=0;exitPerimeter=0;entryX=0.072;entryY=0.996;entryDx=0;entryDy=0;entryPerimeter=0;" parent="1" edge="1">
          <mxGeometry width="80" relative="1" as="geometry">
            <mxPoint x="310" y="1006.8000000000001" as="sourcePoint" />
            <mxPoint x="310.79999999999995" y="929.9999999999999" as="targetPoint" />
          </mxGeometry>
        </mxCell>
        <mxCell id="Ee9hBY-2dXuZXshDiQHQ-7" value="Booking Schedule&amp;nbsp;" style="html=1;verticalAlign=bottom;endArrow=block;curved=0;rounded=0;exitX=0.5;exitY=1;exitDx=0;exitDy=0;" parent="1" source="Ee9hBY-2dXuZXshDiQHQ-2" edge="1">
          <mxGeometry width="80" relative="1" as="geometry">
            <mxPoint x="360" y="970" as="sourcePoint" />
            <mxPoint x="350" y="1030" as="targetPoint" />
            <Array as="points">
              <mxPoint x="360" y="970" />
              <mxPoint x="410" y="970" />
              <mxPoint x="410" y="1030" />
            </Array>
          </mxGeometry>
        </mxCell>
        <mxCell id="Ee9hBY-2dXuZXshDiQHQ-8" value="Booking Schedule" style="html=1;verticalAlign=bottom;endArrow=block;curved=0;rounded=0;exitX=0;exitY=0.5;exitDx=0;exitDy=0;entryX=0.002;entryY=0.605;entryDx=0;entryDy=0;entryPerimeter=0;" parent="1" source="Ee9hBY-2dXuZXshDiQHQ-4" target="RNcLBntZl2BHGZEEgZLp-3" edge="1">
          <mxGeometry width="80" relative="1" as="geometry">
            <mxPoint x="80" y="970" as="sourcePoint" />
            <mxPoint x="10" y="210" as="targetPoint" />
            <Array as="points">
              <mxPoint x="10" y="1060" />
              <mxPoint x="10" y="240" />
            </Array>
          </mxGeometry>
        </mxCell>
        <mxCell id="Ee9hBY-2dXuZXshDiQHQ-9" value="D6&amp;nbsp;&lt;span style=&quot;white-space: pre;&quot;&gt;&#x9;&lt;/span&gt;&amp;nbsp;Schedule info" style="html=1;dashed=0;whiteSpace=wrap;shape=mxgraph.dfd.dataStoreID;align=left;spacingLeft=3;points=[[0,0],[0.5,0],[1,0],[0,0.5],[1,0.5],[0,1],[0.5,1],[1,1]];" parent="1" vertex="1">
          <mxGeometry x="560" y="1000" width="120" height="30" as="geometry" />
        </mxCell>
        <mxCell id="Ee9hBY-2dXuZXshDiQHQ-10" value="Booking schedule" style="html=1;verticalAlign=bottom;endArrow=block;curved=0;rounded=0;entryX=0.347;entryY=0.08;entryDx=0;entryDy=0;entryPerimeter=0;" parent="1" target="Ee9hBY-2dXuZXshDiQHQ-9" edge="1">
          <mxGeometry width="80" relative="1" as="geometry">
            <mxPoint x="440" y="880" as="sourcePoint" />
            <mxPoint x="610" y="880" as="targetPoint" />
            <Array as="points">
              <mxPoint x="602" y="880" />
            </Array>
          </mxGeometry>
        </mxCell>
        <mxCell id="Ee9hBY-2dXuZXshDiQHQ-11" value="5.0" style="swimlane;childLayout=stackLayout;horizontal=1;startSize=20;horizontalStack=0;rounded=1;fontSize=14;fontStyle=0;strokeWidth=2;resizeParent=0;resizeLast=1;shadow=0;dashed=0;align=center;arcSize=4;whiteSpace=wrap;html=1;" parent="1" vertex="1">
          <mxGeometry x="770" y="760" width="170" height="120" as="geometry" />
        </mxCell>
        <mxCell id="Ee9hBY-2dXuZXshDiQHQ-13" value="&lt;font style=&quot;font-size: 14px;&quot;&gt;Generate Weekly Report&lt;/font&gt;" style="text;html=1;align=center;verticalAlign=middle;resizable=0;points=[];autosize=1;strokeColor=none;fillColor=none;" parent="Ee9hBY-2dXuZXshDiQHQ-11" vertex="1">
          <mxGeometry y="20" width="170" height="100" as="geometry" />
        </mxCell>
        <mxCell id="Ee9hBY-2dXuZXshDiQHQ-14" value="Weekly report request" style="html=1;verticalAlign=bottom;endArrow=block;curved=0;rounded=0;" parent="1" edge="1">
          <mxGeometry width="80" relative="1" as="geometry">
            <mxPoint x="1060" y="480" as="sourcePoint" />
            <mxPoint x="940" y="802" as="targetPoint" />
            <Array as="points">
              <mxPoint x="1060" y="802" />
            </Array>
          </mxGeometry>
        </mxCell>
        <mxCell id="Ee9hBY-2dXuZXshDiQHQ-15" value="Booking schedule" style="html=1;verticalAlign=bottom;endArrow=block;curved=0;rounded=0;" parent="1" edge="1">
          <mxGeometry width="80" relative="1" as="geometry">
            <mxPoint x="641" y="1000" as="sourcePoint" />
            <mxPoint x="770" y="820" as="targetPoint" />
            <Array as="points">
              <mxPoint x="641" y="820" />
            </Array>
          </mxGeometry>
        </mxCell>
        <mxCell id="Ee9hBY-2dXuZXshDiQHQ-16" value="Weekly report" style="html=1;verticalAlign=bottom;endArrow=block;curved=0;rounded=0;entryX=0.914;entryY=1.008;entryDx=0;entryDy=0;entryPerimeter=0;" parent="1" target="eXnH5dOhrDXt4Sco5O1Z-30" edge="1">
          <mxGeometry width="80" relative="1" as="geometry">
            <mxPoint x="940" y="840" as="sourcePoint" />
            <mxPoint x="1220" y="840" as="targetPoint" />
            <Array as="points">
              <mxPoint x="1134" y="840" />
            </Array>
          </mxGeometry>
        </mxCell>
      </root>
    </mxGraphModel>
  </diagram>
  <diagram id="IMLMxJGcAPgL2VJGONOM" name="ERD">
    <mxGraphModel dx="1050" dy="669" grid="1" gridSize="10" guides="1" tooltips="1" connect="1" arrows="1" fold="1" page="1" pageScale="1" pageWidth="2339" pageHeight="3300" math="0" shadow="0">
      <root>
        <mxCell id="0" />
        <mxCell id="1" parent="0" />
        <mxCell id="3rgEZMurHxCWyBizHY87-1" value="Client" style="shape=table;startSize=30;container=1;collapsible=1;childLayout=tableLayout;fixedRows=1;rowLines=0;fontStyle=1;align=center;resizeLast=1;html=1;" parent="1" vertex="1">
          <mxGeometry x="740" y="240" width="190" height="270" as="geometry" />
        </mxCell>
        <mxCell id="3rgEZMurHxCWyBizHY87-2" value="" style="shape=tableRow;horizontal=0;startSize=0;swimlaneHead=0;swimlaneBody=0;fillColor=none;collapsible=0;dropTarget=0;points=[[0,0.5],[1,0.5]];portConstraint=eastwest;top=0;left=0;right=0;bottom=1;" parent="3rgEZMurHxCWyBizHY87-1" vertex="1">
          <mxGeometry y="30" width="190" height="30" as="geometry" />
        </mxCell>
        <mxCell id="3rgEZMurHxCWyBizHY87-3" value="PK" style="shape=partialRectangle;connectable=0;fillColor=none;top=0;left=0;bottom=0;right=0;fontStyle=1;overflow=hidden;whiteSpace=wrap;html=1;" parent="3rgEZMurHxCWyBizHY87-2" vertex="1">
          <mxGeometry width="30" height="30" as="geometry">
            <mxRectangle width="30" height="30" as="alternateBounds" />
          </mxGeometry>
        </mxCell>
        <mxCell id="3rgEZMurHxCWyBizHY87-4" value="ClientID" style="shape=partialRectangle;connectable=0;fillColor=none;top=0;left=0;bottom=0;right=0;align=left;spacingLeft=6;fontStyle=5;overflow=hidden;whiteSpace=wrap;html=1;" parent="3rgEZMurHxCWyBizHY87-2" vertex="1">
          <mxGeometry x="30" width="160" height="30" as="geometry">
            <mxRectangle width="160" height="30" as="alternateBounds" />
          </mxGeometry>
        </mxCell>
        <mxCell id="3rgEZMurHxCWyBizHY87-5" value="" style="shape=tableRow;horizontal=0;startSize=0;swimlaneHead=0;swimlaneBody=0;fillColor=none;collapsible=0;dropTarget=0;points=[[0,0.5],[1,0.5]];portConstraint=eastwest;top=0;left=0;right=0;bottom=0;" parent="3rgEZMurHxCWyBizHY87-1" vertex="1">
          <mxGeometry y="60" width="190" height="30" as="geometry" />
        </mxCell>
        <mxCell id="3rgEZMurHxCWyBizHY87-6" value="" style="shape=partialRectangle;connectable=0;fillColor=none;top=0;left=0;bottom=0;right=0;editable=1;overflow=hidden;whiteSpace=wrap;html=1;" parent="3rgEZMurHxCWyBizHY87-5" vertex="1">
          <mxGeometry width="30" height="30" as="geometry">
            <mxRectangle width="30" height="30" as="alternateBounds" />
          </mxGeometry>
        </mxCell>
        <mxCell id="3rgEZMurHxCWyBizHY87-7" value="Client_Name" style="shape=partialRectangle;connectable=0;fillColor=none;top=0;left=0;bottom=0;right=0;align=left;spacingLeft=6;overflow=hidden;whiteSpace=wrap;html=1;" parent="3rgEZMurHxCWyBizHY87-5" vertex="1">
          <mxGeometry x="30" width="160" height="30" as="geometry">
            <mxRectangle width="160" height="30" as="alternateBounds" />
          </mxGeometry>
        </mxCell>
        <mxCell id="3rgEZMurHxCWyBizHY87-8" value="" style="shape=tableRow;horizontal=0;startSize=0;swimlaneHead=0;swimlaneBody=0;fillColor=none;collapsible=0;dropTarget=0;points=[[0,0.5],[1,0.5]];portConstraint=eastwest;top=0;left=0;right=0;bottom=0;" parent="3rgEZMurHxCWyBizHY87-1" vertex="1">
          <mxGeometry y="90" width="190" height="30" as="geometry" />
        </mxCell>
        <mxCell id="3rgEZMurHxCWyBizHY87-9" value="" style="shape=partialRectangle;connectable=0;fillColor=none;top=0;left=0;bottom=0;right=0;editable=1;overflow=hidden;whiteSpace=wrap;html=1;" parent="3rgEZMurHxCWyBizHY87-8" vertex="1">
          <mxGeometry width="30" height="30" as="geometry">
            <mxRectangle width="30" height="30" as="alternateBounds" />
          </mxGeometry>
        </mxCell>
        <mxCell id="3rgEZMurHxCWyBizHY87-10" value="Client_Surname" style="shape=partialRectangle;connectable=0;fillColor=none;top=0;left=0;bottom=0;right=0;align=left;spacingLeft=6;overflow=hidden;whiteSpace=wrap;html=1;" parent="3rgEZMurHxCWyBizHY87-8" vertex="1">
          <mxGeometry x="30" width="160" height="30" as="geometry">
            <mxRectangle width="160" height="30" as="alternateBounds" />
          </mxGeometry>
        </mxCell>
        <mxCell id="3rgEZMurHxCWyBizHY87-11" value="" style="shape=tableRow;horizontal=0;startSize=0;swimlaneHead=0;swimlaneBody=0;fillColor=none;collapsible=0;dropTarget=0;points=[[0,0.5],[1,0.5]];portConstraint=eastwest;top=0;left=0;right=0;bottom=0;" parent="3rgEZMurHxCWyBizHY87-1" vertex="1">
          <mxGeometry y="120" width="190" height="30" as="geometry" />
        </mxCell>
        <mxCell id="3rgEZMurHxCWyBizHY87-12" value="" style="shape=partialRectangle;connectable=0;fillColor=none;top=0;left=0;bottom=0;right=0;editable=1;overflow=hidden;whiteSpace=wrap;html=1;" parent="3rgEZMurHxCWyBizHY87-11" vertex="1">
          <mxGeometry width="30" height="30" as="geometry">
            <mxRectangle width="30" height="30" as="alternateBounds" />
          </mxGeometry>
        </mxCell>
        <mxCell id="3rgEZMurHxCWyBizHY87-13" value="Client_Address" style="shape=partialRectangle;connectable=0;fillColor=none;top=0;left=0;bottom=0;right=0;align=left;spacingLeft=6;overflow=hidden;whiteSpace=wrap;html=1;" parent="3rgEZMurHxCWyBizHY87-11" vertex="1">
          <mxGeometry x="30" width="160" height="30" as="geometry">
            <mxRectangle width="160" height="30" as="alternateBounds" />
          </mxGeometry>
        </mxCell>
        <mxCell id="3rgEZMurHxCWyBizHY87-14" value="" style="shape=tableRow;horizontal=0;startSize=0;swimlaneHead=0;swimlaneBody=0;fillColor=none;collapsible=0;dropTarget=0;points=[[0,0.5],[1,0.5]];portConstraint=eastwest;top=0;left=0;right=0;bottom=0;" parent="3rgEZMurHxCWyBizHY87-1" vertex="1">
          <mxGeometry y="150" width="190" height="30" as="geometry" />
        </mxCell>
        <mxCell id="3rgEZMurHxCWyBizHY87-15" value="" style="shape=partialRectangle;connectable=0;fillColor=none;top=0;left=0;bottom=0;right=0;editable=1;overflow=hidden;whiteSpace=wrap;html=1;" parent="3rgEZMurHxCWyBizHY87-14" vertex="1">
          <mxGeometry width="30" height="30" as="geometry">
            <mxRectangle width="30" height="30" as="alternateBounds" />
          </mxGeometry>
        </mxCell>
        <mxCell id="3rgEZMurHxCWyBizHY87-16" value="Client_IDNum" style="shape=partialRectangle;connectable=0;fillColor=none;top=0;left=0;bottom=0;right=0;align=left;spacingLeft=6;overflow=hidden;whiteSpace=wrap;html=1;" parent="3rgEZMurHxCWyBizHY87-14" vertex="1">
          <mxGeometry x="30" width="160" height="30" as="geometry">
            <mxRectangle width="160" height="30" as="alternateBounds" />
          </mxGeometry>
        </mxCell>
        <mxCell id="3rgEZMurHxCWyBizHY87-17" value="" style="shape=tableRow;horizontal=0;startSize=0;swimlaneHead=0;swimlaneBody=0;fillColor=none;collapsible=0;dropTarget=0;points=[[0,0.5],[1,0.5]];portConstraint=eastwest;top=0;left=0;right=0;bottom=0;" parent="3rgEZMurHxCWyBizHY87-1" vertex="1">
          <mxGeometry y="180" width="190" height="30" as="geometry" />
        </mxCell>
        <mxCell id="3rgEZMurHxCWyBizHY87-18" value="" style="shape=partialRectangle;connectable=0;fillColor=none;top=0;left=0;bottom=0;right=0;editable=1;overflow=hidden;whiteSpace=wrap;html=1;" parent="3rgEZMurHxCWyBizHY87-17" vertex="1">
          <mxGeometry width="30" height="30" as="geometry">
            <mxRectangle width="30" height="30" as="alternateBounds" />
          </mxGeometry>
        </mxCell>
        <mxCell id="3rgEZMurHxCWyBizHY87-19" value="Client_PhoneNum&lt;span style=&quot;white-space: pre;&quot;&gt;&#x9;&lt;/span&gt;&lt;span style=&quot;white-space: pre;&quot;&gt;&#x9;&lt;/span&gt;&lt;span style=&quot;white-space: pre;&quot;&gt;&#x9;&lt;/span&gt;&lt;span style=&quot;white-space: pre;&quot;&gt;&#x9;&lt;/span&gt;&lt;span style=&quot;white-space: pre;&quot;&gt;&#x9;&lt;/span&gt;" style="shape=partialRectangle;connectable=0;fillColor=none;top=0;left=0;bottom=0;right=0;align=left;spacingLeft=6;overflow=hidden;whiteSpace=wrap;html=1;" parent="3rgEZMurHxCWyBizHY87-17" vertex="1">
          <mxGeometry x="30" width="160" height="30" as="geometry">
            <mxRectangle width="160" height="30" as="alternateBounds" />
          </mxGeometry>
        </mxCell>
        <mxCell id="3rgEZMurHxCWyBizHY87-26" value="" style="shape=tableRow;horizontal=0;startSize=0;swimlaneHead=0;swimlaneBody=0;fillColor=none;collapsible=0;dropTarget=0;points=[[0,0.5],[1,0.5]];portConstraint=eastwest;top=0;left=0;right=0;bottom=0;" parent="3rgEZMurHxCWyBizHY87-1" vertex="1">
          <mxGeometry y="210" width="190" height="30" as="geometry" />
        </mxCell>
        <mxCell id="3rgEZMurHxCWyBizHY87-27" value="" style="shape=partialRectangle;connectable=0;fillColor=none;top=0;left=0;bottom=0;right=0;editable=1;overflow=hidden;whiteSpace=wrap;html=1;" parent="3rgEZMurHxCWyBizHY87-26" vertex="1">
          <mxGeometry width="30" height="30" as="geometry">
            <mxRectangle width="30" height="30" as="alternateBounds" />
          </mxGeometry>
        </mxCell>
        <mxCell id="3rgEZMurHxCWyBizHY87-28" value="Client_Username" style="shape=partialRectangle;connectable=0;fillColor=none;top=0;left=0;bottom=0;right=0;align=left;spacingLeft=6;overflow=hidden;whiteSpace=wrap;html=1;" parent="3rgEZMurHxCWyBizHY87-26" vertex="1">
          <mxGeometry x="30" width="160" height="30" as="geometry">
            <mxRectangle width="160" height="30" as="alternateBounds" />
          </mxGeometry>
        </mxCell>
        <mxCell id="3rgEZMurHxCWyBizHY87-29" value="" style="shape=tableRow;horizontal=0;startSize=0;swimlaneHead=0;swimlaneBody=0;fillColor=none;collapsible=0;dropTarget=0;points=[[0,0.5],[1,0.5]];portConstraint=eastwest;top=0;left=0;right=0;bottom=0;" parent="3rgEZMurHxCWyBizHY87-1" vertex="1">
          <mxGeometry y="240" width="190" height="30" as="geometry" />
        </mxCell>
        <mxCell id="3rgEZMurHxCWyBizHY87-30" value="" style="shape=partialRectangle;connectable=0;fillColor=none;top=0;left=0;bottom=0;right=0;editable=1;overflow=hidden;whiteSpace=wrap;html=1;" parent="3rgEZMurHxCWyBizHY87-29" vertex="1">
          <mxGeometry width="30" height="30" as="geometry">
            <mxRectangle width="30" height="30" as="alternateBounds" />
          </mxGeometry>
        </mxCell>
        <mxCell id="3rgEZMurHxCWyBizHY87-31" value="Client_Password" style="shape=partialRectangle;connectable=0;fillColor=none;top=0;left=0;bottom=0;right=0;align=left;spacingLeft=6;overflow=hidden;whiteSpace=wrap;html=1;" parent="3rgEZMurHxCWyBizHY87-29" vertex="1">
          <mxGeometry x="30" width="160" height="30" as="geometry">
            <mxRectangle width="160" height="30" as="alternateBounds" />
          </mxGeometry>
        </mxCell>
        <mxCell id="3rgEZMurHxCWyBizHY87-32" value="Instructor" style="shape=table;startSize=30;container=1;collapsible=1;childLayout=tableLayout;fixedRows=1;rowLines=0;fontStyle=1;align=center;resizeLast=1;html=1;whiteSpace=wrap;" parent="1" vertex="1">
          <mxGeometry x="1160" y="240" width="190" height="330" as="geometry" />
        </mxCell>
        <mxCell id="3rgEZMurHxCWyBizHY87-33" value="" style="shape=tableRow;horizontal=0;startSize=0;swimlaneHead=0;swimlaneBody=0;fillColor=none;collapsible=0;dropTarget=0;points=[[0,0.5],[1,0.5]];portConstraint=eastwest;top=0;left=0;right=0;bottom=0;html=1;" parent="3rgEZMurHxCWyBizHY87-32" vertex="1">
          <mxGeometry y="30" width="190" height="30" as="geometry" />
        </mxCell>
        <mxCell id="3rgEZMurHxCWyBizHY87-34" value="PK" style="shape=partialRectangle;connectable=0;fillColor=none;top=0;left=0;bottom=0;right=0;fontStyle=1;overflow=hidden;html=1;whiteSpace=wrap;" parent="3rgEZMurHxCWyBizHY87-33" vertex="1">
          <mxGeometry width="60" height="30" as="geometry">
            <mxRectangle width="60" height="30" as="alternateBounds" />
          </mxGeometry>
        </mxCell>
        <mxCell id="3rgEZMurHxCWyBizHY87-35" value="InstructorID" style="shape=partialRectangle;connectable=0;fillColor=none;top=0;left=0;bottom=0;right=0;align=left;spacingLeft=6;fontStyle=5;overflow=hidden;html=1;whiteSpace=wrap;" parent="3rgEZMurHxCWyBizHY87-33" vertex="1">
          <mxGeometry x="60" width="130" height="30" as="geometry">
            <mxRectangle width="130" height="30" as="alternateBounds" />
          </mxGeometry>
        </mxCell>
        <mxCell id="3rgEZMurHxCWyBizHY87-65" value="" style="shape=tableRow;horizontal=0;startSize=0;swimlaneHead=0;swimlaneBody=0;fillColor=none;collapsible=0;dropTarget=0;points=[[0,0.5],[1,0.5]];portConstraint=eastwest;top=0;left=0;right=0;bottom=0;html=1;" parent="3rgEZMurHxCWyBizHY87-32" vertex="1">
          <mxGeometry y="60" width="190" height="30" as="geometry" />
        </mxCell>
        <mxCell id="3rgEZMurHxCWyBizHY87-66" value="FK1" style="shape=partialRectangle;connectable=0;fillColor=none;top=0;left=0;bottom=0;right=0;fontStyle=1;overflow=hidden;html=1;whiteSpace=wrap;" parent="3rgEZMurHxCWyBizHY87-65" vertex="1">
          <mxGeometry width="60" height="30" as="geometry">
            <mxRectangle width="60" height="30" as="alternateBounds" />
          </mxGeometry>
        </mxCell>
        <mxCell id="3rgEZMurHxCWyBizHY87-67" value="ClientID" style="shape=partialRectangle;connectable=0;fillColor=none;top=0;left=0;bottom=0;right=0;align=left;spacingLeft=6;fontStyle=5;overflow=hidden;html=1;whiteSpace=wrap;" parent="3rgEZMurHxCWyBizHY87-65" vertex="1">
          <mxGeometry x="60" width="130" height="30" as="geometry">
            <mxRectangle width="130" height="30" as="alternateBounds" />
          </mxGeometry>
        </mxCell>
        <mxCell id="3rgEZMurHxCWyBizHY87-36" value="" style="shape=tableRow;horizontal=0;startSize=0;swimlaneHead=0;swimlaneBody=0;fillColor=none;collapsible=0;dropTarget=0;points=[[0,0.5],[1,0.5]];portConstraint=eastwest;top=0;left=0;right=0;bottom=1;html=1;" parent="3rgEZMurHxCWyBizHY87-32" vertex="1">
          <mxGeometry y="90" width="190" height="30" as="geometry" />
        </mxCell>
        <mxCell id="3rgEZMurHxCWyBizHY87-37" value="FK2" style="shape=partialRectangle;connectable=0;fillColor=none;top=0;left=0;bottom=0;right=0;fontStyle=1;overflow=hidden;html=1;whiteSpace=wrap;" parent="3rgEZMurHxCWyBizHY87-36" vertex="1">
          <mxGeometry width="60" height="30" as="geometry">
            <mxRectangle width="60" height="30" as="alternateBounds" />
          </mxGeometry>
        </mxCell>
        <mxCell id="3rgEZMurHxCWyBizHY87-38" value="VechileID" style="shape=partialRectangle;connectable=0;fillColor=none;top=0;left=0;bottom=0;right=0;align=left;spacingLeft=6;fontStyle=5;overflow=hidden;html=1;whiteSpace=wrap;" parent="3rgEZMurHxCWyBizHY87-36" vertex="1">
          <mxGeometry x="60" width="130" height="30" as="geometry">
            <mxRectangle width="130" height="30" as="alternateBounds" />
          </mxGeometry>
        </mxCell>
        <mxCell id="3rgEZMurHxCWyBizHY87-39" value="" style="shape=tableRow;horizontal=0;startSize=0;swimlaneHead=0;swimlaneBody=0;fillColor=none;collapsible=0;dropTarget=0;points=[[0,0.5],[1,0.5]];portConstraint=eastwest;top=0;left=0;right=0;bottom=0;html=1;" parent="3rgEZMurHxCWyBizHY87-32" vertex="1">
          <mxGeometry y="120" width="190" height="30" as="geometry" />
        </mxCell>
        <mxCell id="3rgEZMurHxCWyBizHY87-40" value="" style="shape=partialRectangle;connectable=0;fillColor=none;top=0;left=0;bottom=0;right=0;editable=1;overflow=hidden;html=1;whiteSpace=wrap;" parent="3rgEZMurHxCWyBizHY87-39" vertex="1">
          <mxGeometry width="60" height="30" as="geometry">
            <mxRectangle width="60" height="30" as="alternateBounds" />
          </mxGeometry>
        </mxCell>
        <mxCell id="3rgEZMurHxCWyBizHY87-41" value="Instructor_Name" style="shape=partialRectangle;connectable=0;fillColor=none;top=0;left=0;bottom=0;right=0;align=left;spacingLeft=6;overflow=hidden;html=1;whiteSpace=wrap;" parent="3rgEZMurHxCWyBizHY87-39" vertex="1">
          <mxGeometry x="60" width="130" height="30" as="geometry">
            <mxRectangle width="130" height="30" as="alternateBounds" />
          </mxGeometry>
        </mxCell>
        <mxCell id="3rgEZMurHxCWyBizHY87-42" value="" style="shape=tableRow;horizontal=0;startSize=0;swimlaneHead=0;swimlaneBody=0;fillColor=none;collapsible=0;dropTarget=0;points=[[0,0.5],[1,0.5]];portConstraint=eastwest;top=0;left=0;right=0;bottom=0;html=1;" parent="3rgEZMurHxCWyBizHY87-32" vertex="1">
          <mxGeometry y="150" width="190" height="30" as="geometry" />
        </mxCell>
        <mxCell id="3rgEZMurHxCWyBizHY87-43" value="" style="shape=partialRectangle;connectable=0;fillColor=none;top=0;left=0;bottom=0;right=0;editable=1;overflow=hidden;html=1;whiteSpace=wrap;" parent="3rgEZMurHxCWyBizHY87-42" vertex="1">
          <mxGeometry width="60" height="30" as="geometry">
            <mxRectangle width="60" height="30" as="alternateBounds" />
          </mxGeometry>
        </mxCell>
        <mxCell id="3rgEZMurHxCWyBizHY87-44" value="Instructor_Surname" style="shape=partialRectangle;connectable=0;fillColor=none;top=0;left=0;bottom=0;right=0;align=left;spacingLeft=6;overflow=hidden;html=1;whiteSpace=wrap;" parent="3rgEZMurHxCWyBizHY87-42" vertex="1">
          <mxGeometry x="60" width="130" height="30" as="geometry">
            <mxRectangle width="130" height="30" as="alternateBounds" />
          </mxGeometry>
        </mxCell>
        <mxCell id="3rgEZMurHxCWyBizHY87-68" value="" style="shape=tableRow;horizontal=0;startSize=0;swimlaneHead=0;swimlaneBody=0;fillColor=none;collapsible=0;dropTarget=0;points=[[0,0.5],[1,0.5]];portConstraint=eastwest;top=0;left=0;right=0;bottom=0;html=1;" parent="3rgEZMurHxCWyBizHY87-32" vertex="1">
          <mxGeometry y="180" width="190" height="30" as="geometry" />
        </mxCell>
        <mxCell id="3rgEZMurHxCWyBizHY87-69" value="" style="shape=partialRectangle;connectable=0;fillColor=none;top=0;left=0;bottom=0;right=0;editable=1;overflow=hidden;html=1;whiteSpace=wrap;" parent="3rgEZMurHxCWyBizHY87-68" vertex="1">
          <mxGeometry width="60" height="30" as="geometry">
            <mxRectangle width="60" height="30" as="alternateBounds" />
          </mxGeometry>
        </mxCell>
        <mxCell id="3rgEZMurHxCWyBizHY87-70" value="Instructor_Address" style="shape=partialRectangle;connectable=0;fillColor=none;top=0;left=0;bottom=0;right=0;align=left;spacingLeft=6;overflow=hidden;html=1;whiteSpace=wrap;" parent="3rgEZMurHxCWyBizHY87-68" vertex="1">
          <mxGeometry x="60" width="130" height="30" as="geometry">
            <mxRectangle width="130" height="30" as="alternateBounds" />
          </mxGeometry>
        </mxCell>
        <mxCell id="3rgEZMurHxCWyBizHY87-71" value="" style="shape=tableRow;horizontal=0;startSize=0;swimlaneHead=0;swimlaneBody=0;fillColor=none;collapsible=0;dropTarget=0;points=[[0,0.5],[1,0.5]];portConstraint=eastwest;top=0;left=0;right=0;bottom=0;html=1;" parent="3rgEZMurHxCWyBizHY87-32" vertex="1">
          <mxGeometry y="210" width="190" height="30" as="geometry" />
        </mxCell>
        <mxCell id="3rgEZMurHxCWyBizHY87-72" value="" style="shape=partialRectangle;connectable=0;fillColor=none;top=0;left=0;bottom=0;right=0;editable=1;overflow=hidden;html=1;whiteSpace=wrap;" parent="3rgEZMurHxCWyBizHY87-71" vertex="1">
          <mxGeometry width="60" height="30" as="geometry">
            <mxRectangle width="60" height="30" as="alternateBounds" />
          </mxGeometry>
        </mxCell>
        <mxCell id="3rgEZMurHxCWyBizHY87-73" value="Instructor_CellNum" style="shape=partialRectangle;connectable=0;fillColor=none;top=0;left=0;bottom=0;right=0;align=left;spacingLeft=6;overflow=hidden;html=1;whiteSpace=wrap;" parent="3rgEZMurHxCWyBizHY87-71" vertex="1">
          <mxGeometry x="60" width="130" height="30" as="geometry">
            <mxRectangle width="130" height="30" as="alternateBounds" />
          </mxGeometry>
        </mxCell>
        <mxCell id="3rgEZMurHxCWyBizHY87-74" value="" style="shape=tableRow;horizontal=0;startSize=0;swimlaneHead=0;swimlaneBody=0;fillColor=none;collapsible=0;dropTarget=0;points=[[0,0.5],[1,0.5]];portConstraint=eastwest;top=0;left=0;right=0;bottom=0;html=1;" parent="3rgEZMurHxCWyBizHY87-32" vertex="1">
          <mxGeometry y="240" width="190" height="30" as="geometry" />
        </mxCell>
        <mxCell id="3rgEZMurHxCWyBizHY87-75" value="" style="shape=partialRectangle;connectable=0;fillColor=none;top=0;left=0;bottom=0;right=0;editable=1;overflow=hidden;html=1;whiteSpace=wrap;" parent="3rgEZMurHxCWyBizHY87-74" vertex="1">
          <mxGeometry width="60" height="30" as="geometry">
            <mxRectangle width="60" height="30" as="alternateBounds" />
          </mxGeometry>
        </mxCell>
        <mxCell id="3rgEZMurHxCWyBizHY87-76" value="Instructor_IDNum" style="shape=partialRectangle;connectable=0;fillColor=none;top=0;left=0;bottom=0;right=0;align=left;spacingLeft=6;overflow=hidden;html=1;whiteSpace=wrap;" parent="3rgEZMurHxCWyBizHY87-74" vertex="1">
          <mxGeometry x="60" width="130" height="30" as="geometry">
            <mxRectangle width="130" height="30" as="alternateBounds" />
          </mxGeometry>
        </mxCell>
        <mxCell id="3rgEZMurHxCWyBizHY87-77" value="" style="shape=tableRow;horizontal=0;startSize=0;swimlaneHead=0;swimlaneBody=0;fillColor=none;collapsible=0;dropTarget=0;points=[[0,0.5],[1,0.5]];portConstraint=eastwest;top=0;left=0;right=0;bottom=0;html=1;" parent="3rgEZMurHxCWyBizHY87-32" vertex="1">
          <mxGeometry y="270" width="190" height="30" as="geometry" />
        </mxCell>
        <mxCell id="3rgEZMurHxCWyBizHY87-78" value="" style="shape=partialRectangle;connectable=0;fillColor=none;top=0;left=0;bottom=0;right=0;editable=1;overflow=hidden;html=1;whiteSpace=wrap;" parent="3rgEZMurHxCWyBizHY87-77" vertex="1">
          <mxGeometry width="60" height="30" as="geometry">
            <mxRectangle width="60" height="30" as="alternateBounds" />
          </mxGeometry>
        </mxCell>
        <mxCell id="3rgEZMurHxCWyBizHY87-79" value="Instructor_Username" style="shape=partialRectangle;connectable=0;fillColor=none;top=0;left=0;bottom=0;right=0;align=left;spacingLeft=6;overflow=hidden;html=1;whiteSpace=wrap;" parent="3rgEZMurHxCWyBizHY87-77" vertex="1">
          <mxGeometry x="60" width="130" height="30" as="geometry">
            <mxRectangle width="130" height="30" as="alternateBounds" />
          </mxGeometry>
        </mxCell>
        <mxCell id="3rgEZMurHxCWyBizHY87-80" value="" style="shape=tableRow;horizontal=0;startSize=0;swimlaneHead=0;swimlaneBody=0;fillColor=none;collapsible=0;dropTarget=0;points=[[0,0.5],[1,0.5]];portConstraint=eastwest;top=0;left=0;right=0;bottom=0;html=1;" parent="3rgEZMurHxCWyBizHY87-32" vertex="1">
          <mxGeometry y="300" width="190" height="30" as="geometry" />
        </mxCell>
        <mxCell id="3rgEZMurHxCWyBizHY87-81" value="" style="shape=partialRectangle;connectable=0;fillColor=none;top=0;left=0;bottom=0;right=0;editable=1;overflow=hidden;html=1;whiteSpace=wrap;" parent="3rgEZMurHxCWyBizHY87-80" vertex="1">
          <mxGeometry width="60" height="30" as="geometry">
            <mxRectangle width="60" height="30" as="alternateBounds" />
          </mxGeometry>
        </mxCell>
        <mxCell id="3rgEZMurHxCWyBizHY87-82" value="Instructor_Password" style="shape=partialRectangle;connectable=0;fillColor=none;top=0;left=0;bottom=0;right=0;align=left;spacingLeft=6;overflow=hidden;html=1;whiteSpace=wrap;" parent="3rgEZMurHxCWyBizHY87-80" vertex="1">
          <mxGeometry x="60" width="130" height="30" as="geometry">
            <mxRectangle width="130" height="30" as="alternateBounds" />
          </mxGeometry>
        </mxCell>
        <mxCell id="3rgEZMurHxCWyBizHY87-84" value="" style="edgeStyle=entityRelationEdgeStyle;fontSize=12;html=1;endArrow=ERoneToMany;startArrow=ERmandOne;rounded=0;entryX=1;entryY=0.5;entryDx=0;entryDy=0;exitX=0;exitY=0.5;exitDx=0;exitDy=0;" parent="1" source="3rgEZMurHxCWyBizHY87-42" target="3rgEZMurHxCWyBizHY87-14" edge="1">
          <mxGeometry width="100" height="100" relative="1" as="geometry">
            <mxPoint x="1160" y="415" as="sourcePoint" />
            <mxPoint x="1060" y="470" as="targetPoint" />
            <Array as="points">
              <mxPoint x="1050" y="490" />
              <mxPoint x="1150" y="420" />
              <mxPoint x="1050" y="490" />
            </Array>
          </mxGeometry>
        </mxCell>
        <mxCell id="3rgEZMurHxCWyBizHY87-85" value="has /&lt;div&gt;is assigned to&lt;/div&gt;" style="text;html=1;align=center;verticalAlign=middle;resizable=0;points=[];autosize=1;strokeColor=none;fillColor=none;" parent="1" vertex="1">
          <mxGeometry x="990" y="385" width="100" height="40" as="geometry" />
        </mxCell>
        <mxCell id="3rgEZMurHxCWyBizHY87-86" value="Booking" style="shape=table;startSize=30;container=1;collapsible=1;childLayout=tableLayout;fixedRows=1;rowLines=0;fontStyle=1;align=center;resizeLast=1;html=1;whiteSpace=wrap;" parent="1" vertex="1">
          <mxGeometry x="980" y="730" width="220" height="330" as="geometry" />
        </mxCell>
        <mxCell id="3rgEZMurHxCWyBizHY87-87" value="" style="shape=tableRow;horizontal=0;startSize=0;swimlaneHead=0;swimlaneBody=0;fillColor=none;collapsible=0;dropTarget=0;points=[[0,0.5],[1,0.5]];portConstraint=eastwest;top=0;left=0;right=0;bottom=0;html=1;" parent="3rgEZMurHxCWyBizHY87-86" vertex="1">
          <mxGeometry y="30" width="220" height="30" as="geometry" />
        </mxCell>
        <mxCell id="3rgEZMurHxCWyBizHY87-88" value="PK" style="shape=partialRectangle;connectable=0;fillColor=none;top=0;left=0;bottom=0;right=0;fontStyle=1;overflow=hidden;html=1;whiteSpace=wrap;" parent="3rgEZMurHxCWyBizHY87-87" vertex="1">
          <mxGeometry width="60" height="30" as="geometry">
            <mxRectangle width="60" height="30" as="alternateBounds" />
          </mxGeometry>
        </mxCell>
        <mxCell id="3rgEZMurHxCWyBizHY87-89" value="BookingID" style="shape=partialRectangle;connectable=0;fillColor=none;top=0;left=0;bottom=0;right=0;align=left;spacingLeft=6;fontStyle=5;overflow=hidden;html=1;whiteSpace=wrap;" parent="3rgEZMurHxCWyBizHY87-87" vertex="1">
          <mxGeometry x="60" width="160" height="30" as="geometry">
            <mxRectangle width="160" height="30" as="alternateBounds" />
          </mxGeometry>
        </mxCell>
        <mxCell id="3rgEZMurHxCWyBizHY87-99" value="" style="shape=tableRow;horizontal=0;startSize=0;swimlaneHead=0;swimlaneBody=0;fillColor=none;collapsible=0;dropTarget=0;points=[[0,0.5],[1,0.5]];portConstraint=eastwest;top=0;left=0;right=0;bottom=0;html=1;" parent="3rgEZMurHxCWyBizHY87-86" vertex="1">
          <mxGeometry y="60" width="220" height="30" as="geometry" />
        </mxCell>
        <mxCell id="3rgEZMurHxCWyBizHY87-100" value="FK1" style="shape=partialRectangle;connectable=0;fillColor=none;top=0;left=0;bottom=0;right=0;fontStyle=1;overflow=hidden;html=1;whiteSpace=wrap;" parent="3rgEZMurHxCWyBizHY87-99" vertex="1">
          <mxGeometry width="60" height="30" as="geometry">
            <mxRectangle width="60" height="30" as="alternateBounds" />
          </mxGeometry>
        </mxCell>
        <mxCell id="3rgEZMurHxCWyBizHY87-101" value="ClientID" style="shape=partialRectangle;connectable=0;fillColor=none;top=0;left=0;bottom=0;right=0;align=left;spacingLeft=6;fontStyle=5;overflow=hidden;html=1;whiteSpace=wrap;" parent="3rgEZMurHxCWyBizHY87-99" vertex="1">
          <mxGeometry x="60" width="160" height="30" as="geometry">
            <mxRectangle width="160" height="30" as="alternateBounds" />
          </mxGeometry>
        </mxCell>
        <mxCell id="3rgEZMurHxCWyBizHY87-90" value="" style="shape=tableRow;horizontal=0;startSize=0;swimlaneHead=0;swimlaneBody=0;fillColor=none;collapsible=0;dropTarget=0;points=[[0,0.5],[1,0.5]];portConstraint=eastwest;top=0;left=0;right=0;bottom=1;html=1;" parent="3rgEZMurHxCWyBizHY87-86" vertex="1">
          <mxGeometry y="90" width="220" height="30" as="geometry" />
        </mxCell>
        <mxCell id="3rgEZMurHxCWyBizHY87-91" value="FK2" style="shape=partialRectangle;connectable=0;fillColor=none;top=0;left=0;bottom=0;right=0;fontStyle=1;overflow=hidden;html=1;whiteSpace=wrap;" parent="3rgEZMurHxCWyBizHY87-90" vertex="1">
          <mxGeometry width="60" height="30" as="geometry">
            <mxRectangle width="60" height="30" as="alternateBounds" />
          </mxGeometry>
        </mxCell>
        <mxCell id="3rgEZMurHxCWyBizHY87-92" value="InstructorID" style="shape=partialRectangle;connectable=0;fillColor=none;top=0;left=0;bottom=0;right=0;align=left;spacingLeft=6;fontStyle=5;overflow=hidden;html=1;whiteSpace=wrap;" parent="3rgEZMurHxCWyBizHY87-90" vertex="1">
          <mxGeometry x="60" width="160" height="30" as="geometry">
            <mxRectangle width="160" height="30" as="alternateBounds" />
          </mxGeometry>
        </mxCell>
        <mxCell id="3rgEZMurHxCWyBizHY87-93" value="" style="shape=tableRow;horizontal=0;startSize=0;swimlaneHead=0;swimlaneBody=0;fillColor=none;collapsible=0;dropTarget=0;points=[[0,0.5],[1,0.5]];portConstraint=eastwest;top=0;left=0;right=0;bottom=0;html=1;" parent="3rgEZMurHxCWyBizHY87-86" vertex="1">
          <mxGeometry y="120" width="220" height="30" as="geometry" />
        </mxCell>
        <mxCell id="3rgEZMurHxCWyBizHY87-94" value="" style="shape=partialRectangle;connectable=0;fillColor=none;top=0;left=0;bottom=0;right=0;editable=1;overflow=hidden;html=1;whiteSpace=wrap;" parent="3rgEZMurHxCWyBizHY87-93" vertex="1">
          <mxGeometry width="60" height="30" as="geometry">
            <mxRectangle width="60" height="30" as="alternateBounds" />
          </mxGeometry>
        </mxCell>
        <mxCell id="3rgEZMurHxCWyBizHY87-95" value="Booking_Time" style="shape=partialRectangle;connectable=0;fillColor=none;top=0;left=0;bottom=0;right=0;align=left;spacingLeft=6;overflow=hidden;html=1;whiteSpace=wrap;" parent="3rgEZMurHxCWyBizHY87-93" vertex="1">
          <mxGeometry x="60" width="160" height="30" as="geometry">
            <mxRectangle width="160" height="30" as="alternateBounds" />
          </mxGeometry>
        </mxCell>
        <mxCell id="3rgEZMurHxCWyBizHY87-96" value="" style="shape=tableRow;horizontal=0;startSize=0;swimlaneHead=0;swimlaneBody=0;fillColor=none;collapsible=0;dropTarget=0;points=[[0,0.5],[1,0.5]];portConstraint=eastwest;top=0;left=0;right=0;bottom=0;html=1;" parent="3rgEZMurHxCWyBizHY87-86" vertex="1">
          <mxGeometry y="150" width="220" height="30" as="geometry" />
        </mxCell>
        <mxCell id="3rgEZMurHxCWyBizHY87-97" value="" style="shape=partialRectangle;connectable=0;fillColor=none;top=0;left=0;bottom=0;right=0;editable=1;overflow=hidden;html=1;whiteSpace=wrap;" parent="3rgEZMurHxCWyBizHY87-96" vertex="1">
          <mxGeometry width="60" height="30" as="geometry">
            <mxRectangle width="60" height="30" as="alternateBounds" />
          </mxGeometry>
        </mxCell>
        <mxCell id="3rgEZMurHxCWyBizHY87-98" value="Booking_Date" style="shape=partialRectangle;connectable=0;fillColor=none;top=0;left=0;bottom=0;right=0;align=left;spacingLeft=6;overflow=hidden;html=1;whiteSpace=wrap;" parent="3rgEZMurHxCWyBizHY87-96" vertex="1">
          <mxGeometry x="60" width="160" height="30" as="geometry">
            <mxRectangle width="160" height="30" as="alternateBounds" />
          </mxGeometry>
        </mxCell>
        <mxCell id="3rgEZMurHxCWyBizHY87-102" value="" style="shape=tableRow;horizontal=0;startSize=0;swimlaneHead=0;swimlaneBody=0;fillColor=none;collapsible=0;dropTarget=0;points=[[0,0.5],[1,0.5]];portConstraint=eastwest;top=0;left=0;right=0;bottom=0;html=1;" parent="3rgEZMurHxCWyBizHY87-86" vertex="1">
          <mxGeometry y="180" width="220" height="30" as="geometry" />
        </mxCell>
        <mxCell id="3rgEZMurHxCWyBizHY87-103" value="" style="shape=partialRectangle;connectable=0;fillColor=none;top=0;left=0;bottom=0;right=0;editable=1;overflow=hidden;html=1;whiteSpace=wrap;" parent="3rgEZMurHxCWyBizHY87-102" vertex="1">
          <mxGeometry width="60" height="30" as="geometry">
            <mxRectangle width="60" height="30" as="alternateBounds" />
          </mxGeometry>
        </mxCell>
        <mxCell id="3rgEZMurHxCWyBizHY87-104" value="Booking_Code" style="shape=partialRectangle;connectable=0;fillColor=none;top=0;left=0;bottom=0;right=0;align=left;spacingLeft=6;overflow=hidden;html=1;whiteSpace=wrap;" parent="3rgEZMurHxCWyBizHY87-102" vertex="1">
          <mxGeometry x="60" width="160" height="30" as="geometry">
            <mxRectangle width="160" height="30" as="alternateBounds" />
          </mxGeometry>
        </mxCell>
        <mxCell id="3rgEZMurHxCWyBizHY87-105" value="" style="shape=tableRow;horizontal=0;startSize=0;swimlaneHead=0;swimlaneBody=0;fillColor=none;collapsible=0;dropTarget=0;points=[[0,0.5],[1,0.5]];portConstraint=eastwest;top=0;left=0;right=0;bottom=0;html=1;" parent="3rgEZMurHxCWyBizHY87-86" vertex="1">
          <mxGeometry y="210" width="220" height="30" as="geometry" />
        </mxCell>
        <mxCell id="3rgEZMurHxCWyBizHY87-106" value="" style="shape=partialRectangle;connectable=0;fillColor=none;top=0;left=0;bottom=0;right=0;editable=1;overflow=hidden;html=1;whiteSpace=wrap;" parent="3rgEZMurHxCWyBizHY87-105" vertex="1">
          <mxGeometry width="60" height="30" as="geometry">
            <mxRectangle width="60" height="30" as="alternateBounds" />
          </mxGeometry>
        </mxCell>
        <mxCell id="3rgEZMurHxCWyBizHY87-107" value="Booking_AmountDue" style="shape=partialRectangle;connectable=0;fillColor=none;top=0;left=0;bottom=0;right=0;align=left;spacingLeft=6;overflow=hidden;html=1;whiteSpace=wrap;" parent="3rgEZMurHxCWyBizHY87-105" vertex="1">
          <mxGeometry x="60" width="160" height="30" as="geometry">
            <mxRectangle width="160" height="30" as="alternateBounds" />
          </mxGeometry>
        </mxCell>
        <mxCell id="3rgEZMurHxCWyBizHY87-108" value="" style="shape=tableRow;horizontal=0;startSize=0;swimlaneHead=0;swimlaneBody=0;fillColor=none;collapsible=0;dropTarget=0;points=[[0,0.5],[1,0.5]];portConstraint=eastwest;top=0;left=0;right=0;bottom=0;html=1;" parent="3rgEZMurHxCWyBizHY87-86" vertex="1">
          <mxGeometry y="240" width="220" height="30" as="geometry" />
        </mxCell>
        <mxCell id="3rgEZMurHxCWyBizHY87-109" value="" style="shape=partialRectangle;connectable=0;fillColor=none;top=0;left=0;bottom=0;right=0;editable=1;overflow=hidden;html=1;whiteSpace=wrap;" parent="3rgEZMurHxCWyBizHY87-108" vertex="1">
          <mxGeometry width="60" height="30" as="geometry">
            <mxRectangle width="60" height="30" as="alternateBounds" />
          </mxGeometry>
        </mxCell>
        <mxCell id="3rgEZMurHxCWyBizHY87-110" value="Booking_PaymentStatus" style="shape=partialRectangle;connectable=0;fillColor=none;top=0;left=0;bottom=0;right=0;align=left;spacingLeft=6;overflow=hidden;html=1;whiteSpace=wrap;" parent="3rgEZMurHxCWyBizHY87-108" vertex="1">
          <mxGeometry x="60" width="160" height="30" as="geometry">
            <mxRectangle width="160" height="30" as="alternateBounds" />
          </mxGeometry>
        </mxCell>
        <mxCell id="ev2SZZYzDiaQXQkeOENr-1" value="" style="shape=tableRow;horizontal=0;startSize=0;swimlaneHead=0;swimlaneBody=0;fillColor=none;collapsible=0;dropTarget=0;points=[[0,0.5],[1,0.5]];portConstraint=eastwest;top=0;left=0;right=0;bottom=0;html=1;" parent="3rgEZMurHxCWyBizHY87-86" vertex="1">
          <mxGeometry y="270" width="220" height="30" as="geometry" />
        </mxCell>
        <mxCell id="ev2SZZYzDiaQXQkeOENr-2" value="" style="shape=partialRectangle;connectable=0;fillColor=none;top=0;left=0;bottom=0;right=0;editable=1;overflow=hidden;html=1;whiteSpace=wrap;" parent="ev2SZZYzDiaQXQkeOENr-1" vertex="1">
          <mxGeometry width="60" height="30" as="geometry">
            <mxRectangle width="60" height="30" as="alternateBounds" />
          </mxGeometry>
        </mxCell>
        <mxCell id="ev2SZZYzDiaQXQkeOENr-3" value="&lt;br&gt;&lt;span style=&quot;color: rgb(0, 0, 0); font-family: Helvetica; font-size: 12px; font-style: normal; font-variant-ligatures: normal; font-variant-caps: normal; font-weight: 400; letter-spacing: normal; orphans: 2; text-indent: 0px; text-transform: none; widows: 2; word-spacing: 0px; -webkit-text-stroke-width: 0px; white-space: normal; background-color: rgb(251, 251, 251); text-decoration-thickness: initial; text-decoration-style: initial; text-decoration-color: initial; float: none; display: inline !important;&quot;&gt;Client_LearnersIssueDate&lt;/span&gt;&lt;div&gt;&lt;br/&gt;&lt;/div&gt;" style="shape=partialRectangle;connectable=0;fillColor=none;top=0;left=0;bottom=0;right=0;align=left;spacingLeft=6;overflow=hidden;html=1;whiteSpace=wrap;" parent="ev2SZZYzDiaQXQkeOENr-1" vertex="1">
          <mxGeometry x="60" width="160" height="30" as="geometry">
            <mxRectangle width="160" height="30" as="alternateBounds" />
          </mxGeometry>
        </mxCell>
        <mxCell id="ev2SZZYzDiaQXQkeOENr-4" value="" style="shape=tableRow;horizontal=0;startSize=0;swimlaneHead=0;swimlaneBody=0;fillColor=none;collapsible=0;dropTarget=0;points=[[0,0.5],[1,0.5]];portConstraint=eastwest;top=0;left=0;right=0;bottom=0;html=1;" parent="3rgEZMurHxCWyBizHY87-86" vertex="1">
          <mxGeometry y="300" width="220" height="30" as="geometry" />
        </mxCell>
        <mxCell id="ev2SZZYzDiaQXQkeOENr-5" value="" style="shape=partialRectangle;connectable=0;fillColor=none;top=0;left=0;bottom=0;right=0;editable=1;overflow=hidden;html=1;whiteSpace=wrap;" parent="ev2SZZYzDiaQXQkeOENr-4" vertex="1">
          <mxGeometry width="60" height="30" as="geometry">
            <mxRectangle width="60" height="30" as="alternateBounds" />
          </mxGeometry>
        </mxCell>
        <mxCell id="ev2SZZYzDiaQXQkeOENr-6" value="Client_LearnersExpiryDate" style="shape=partialRectangle;connectable=0;fillColor=none;top=0;left=0;bottom=0;right=0;align=left;spacingLeft=6;overflow=hidden;html=1;whiteSpace=wrap;" parent="ev2SZZYzDiaQXQkeOENr-4" vertex="1">
          <mxGeometry x="60" width="160" height="30" as="geometry">
            <mxRectangle width="160" height="30" as="alternateBounds" />
          </mxGeometry>
        </mxCell>
        <mxCell id="3rgEZMurHxCWyBizHY87-111" value="" style="edgeStyle=elbowEdgeStyle;fontSize=12;html=1;endArrow=ERzeroToMany;startArrow=ERmandOne;rounded=0;elbow=vertical;entryX=0.25;entryY=0;entryDx=0;entryDy=0;exitX=0.331;exitY=0.987;exitDx=0;exitDy=0;exitPerimeter=0;" parent="1" source="3rgEZMurHxCWyBizHY87-29" edge="1">
          <mxGeometry width="100" height="100" relative="1" as="geometry">
            <mxPoint x="800" y="570" as="sourcePoint" />
            <mxPoint x="1040" y="730" as="targetPoint" />
            <Array as="points">
              <mxPoint x="910" y="650" />
            </Array>
          </mxGeometry>
        </mxCell>
        <mxCell id="3rgEZMurHxCWyBizHY87-112" value="is assigned to/&lt;div&gt;has&lt;/div&gt;" style="text;html=1;align=center;verticalAlign=middle;resizable=0;points=[];autosize=1;strokeColor=none;fillColor=none;" parent="1" vertex="1">
          <mxGeometry x="850" y="630" width="100" height="40" as="geometry" />
        </mxCell>
        <mxCell id="3rgEZMurHxCWyBizHY87-113" value="" style="edgeStyle=elbowEdgeStyle;fontSize=12;html=1;endArrow=ERoneToMany;startArrow=ERmandOne;rounded=0;elbow=vertical;" parent="1" edge="1">
          <mxGeometry width="100" height="100" relative="1" as="geometry">
            <mxPoint x="1278" y="570" as="sourcePoint" />
            <mxPoint x="1120" y="730" as="targetPoint" />
          </mxGeometry>
        </mxCell>
        <mxCell id="3rgEZMurHxCWyBizHY87-114" value="is assigned to/&lt;div&gt;has&lt;/div&gt;" style="text;html=1;align=center;verticalAlign=middle;resizable=0;points=[];autosize=1;strokeColor=none;fillColor=none;" parent="1" vertex="1">
          <mxGeometry x="1150" y="630" width="100" height="40" as="geometry" />
        </mxCell>
        <mxCell id="3rgEZMurHxCWyBizHY87-116" value="Vehicle" style="shape=table;startSize=30;container=1;collapsible=1;childLayout=tableLayout;fixedRows=1;rowLines=0;fontStyle=1;align=center;resizeLast=1;html=1;" parent="1" vertex="1">
          <mxGeometry x="1600" y="240" width="180" height="210" as="geometry" />
        </mxCell>
        <mxCell id="3rgEZMurHxCWyBizHY87-117" value="" style="shape=tableRow;horizontal=0;startSize=0;swimlaneHead=0;swimlaneBody=0;fillColor=none;collapsible=0;dropTarget=0;points=[[0,0.5],[1,0.5]];portConstraint=eastwest;top=0;left=0;right=0;bottom=1;" parent="3rgEZMurHxCWyBizHY87-116" vertex="1">
          <mxGeometry y="30" width="180" height="30" as="geometry" />
        </mxCell>
        <mxCell id="3rgEZMurHxCWyBizHY87-118" value="PK" style="shape=partialRectangle;connectable=0;fillColor=none;top=0;left=0;bottom=0;right=0;fontStyle=1;overflow=hidden;whiteSpace=wrap;html=1;" parent="3rgEZMurHxCWyBizHY87-117" vertex="1">
          <mxGeometry width="30" height="30" as="geometry">
            <mxRectangle width="30" height="30" as="alternateBounds" />
          </mxGeometry>
        </mxCell>
        <mxCell id="3rgEZMurHxCWyBizHY87-119" value="VehicleID" style="shape=partialRectangle;connectable=0;fillColor=none;top=0;left=0;bottom=0;right=0;align=left;spacingLeft=6;fontStyle=5;overflow=hidden;whiteSpace=wrap;html=1;" parent="3rgEZMurHxCWyBizHY87-117" vertex="1">
          <mxGeometry x="30" width="150" height="30" as="geometry">
            <mxRectangle width="150" height="30" as="alternateBounds" />
          </mxGeometry>
        </mxCell>
        <mxCell id="3rgEZMurHxCWyBizHY87-120" value="" style="shape=tableRow;horizontal=0;startSize=0;swimlaneHead=0;swimlaneBody=0;fillColor=none;collapsible=0;dropTarget=0;points=[[0,0.5],[1,0.5]];portConstraint=eastwest;top=0;left=0;right=0;bottom=0;" parent="3rgEZMurHxCWyBizHY87-116" vertex="1">
          <mxGeometry y="60" width="180" height="30" as="geometry" />
        </mxCell>
        <mxCell id="3rgEZMurHxCWyBizHY87-121" value="" style="shape=partialRectangle;connectable=0;fillColor=none;top=0;left=0;bottom=0;right=0;editable=1;overflow=hidden;whiteSpace=wrap;html=1;" parent="3rgEZMurHxCWyBizHY87-120" vertex="1">
          <mxGeometry width="30" height="30" as="geometry">
            <mxRectangle width="30" height="30" as="alternateBounds" />
          </mxGeometry>
        </mxCell>
        <mxCell id="3rgEZMurHxCWyBizHY87-122" value="Vehicle_NumberPlate" style="shape=partialRectangle;connectable=0;fillColor=none;top=0;left=0;bottom=0;right=0;align=left;spacingLeft=6;overflow=hidden;whiteSpace=wrap;html=1;" parent="3rgEZMurHxCWyBizHY87-120" vertex="1">
          <mxGeometry x="30" width="150" height="30" as="geometry">
            <mxRectangle width="150" height="30" as="alternateBounds" />
          </mxGeometry>
        </mxCell>
        <mxCell id="3rgEZMurHxCWyBizHY87-123" value="" style="shape=tableRow;horizontal=0;startSize=0;swimlaneHead=0;swimlaneBody=0;fillColor=none;collapsible=0;dropTarget=0;points=[[0,0.5],[1,0.5]];portConstraint=eastwest;top=0;left=0;right=0;bottom=0;" parent="3rgEZMurHxCWyBizHY87-116" vertex="1">
          <mxGeometry y="90" width="180" height="30" as="geometry" />
        </mxCell>
        <mxCell id="3rgEZMurHxCWyBizHY87-124" value="" style="shape=partialRectangle;connectable=0;fillColor=none;top=0;left=0;bottom=0;right=0;editable=1;overflow=hidden;whiteSpace=wrap;html=1;" parent="3rgEZMurHxCWyBizHY87-123" vertex="1">
          <mxGeometry width="30" height="30" as="geometry">
            <mxRectangle width="30" height="30" as="alternateBounds" />
          </mxGeometry>
        </mxCell>
        <mxCell id="3rgEZMurHxCWyBizHY87-125" value="Vehicle_RegistrationNum" style="shape=partialRectangle;connectable=0;fillColor=none;top=0;left=0;bottom=0;right=0;align=left;spacingLeft=6;overflow=hidden;whiteSpace=wrap;html=1;" parent="3rgEZMurHxCWyBizHY87-123" vertex="1">
          <mxGeometry x="30" width="150" height="30" as="geometry">
            <mxRectangle width="150" height="30" as="alternateBounds" />
          </mxGeometry>
        </mxCell>
        <mxCell id="3rgEZMurHxCWyBizHY87-126" value="" style="shape=tableRow;horizontal=0;startSize=0;swimlaneHead=0;swimlaneBody=0;fillColor=none;collapsible=0;dropTarget=0;points=[[0,0.5],[1,0.5]];portConstraint=eastwest;top=0;left=0;right=0;bottom=0;" parent="3rgEZMurHxCWyBizHY87-116" vertex="1">
          <mxGeometry y="120" width="180" height="30" as="geometry" />
        </mxCell>
        <mxCell id="3rgEZMurHxCWyBizHY87-127" value="" style="shape=partialRectangle;connectable=0;fillColor=none;top=0;left=0;bottom=0;right=0;editable=1;overflow=hidden;whiteSpace=wrap;html=1;" parent="3rgEZMurHxCWyBizHY87-126" vertex="1">
          <mxGeometry width="30" height="30" as="geometry">
            <mxRectangle width="30" height="30" as="alternateBounds" />
          </mxGeometry>
        </mxCell>
        <mxCell id="3rgEZMurHxCWyBizHY87-128" value="Vechile_EngineNum" style="shape=partialRectangle;connectable=0;fillColor=none;top=0;left=0;bottom=0;right=0;align=left;spacingLeft=6;overflow=hidden;whiteSpace=wrap;html=1;" parent="3rgEZMurHxCWyBizHY87-126" vertex="1">
          <mxGeometry x="30" width="150" height="30" as="geometry">
            <mxRectangle width="150" height="30" as="alternateBounds" />
          </mxGeometry>
        </mxCell>
        <mxCell id="3rgEZMurHxCWyBizHY87-129" value="" style="shape=tableRow;horizontal=0;startSize=0;swimlaneHead=0;swimlaneBody=0;fillColor=none;collapsible=0;dropTarget=0;points=[[0,0.5],[1,0.5]];portConstraint=eastwest;top=0;left=0;right=0;bottom=0;" parent="3rgEZMurHxCWyBizHY87-116" vertex="1">
          <mxGeometry y="150" width="180" height="30" as="geometry" />
        </mxCell>
        <mxCell id="3rgEZMurHxCWyBizHY87-130" value="" style="shape=partialRectangle;connectable=0;fillColor=none;top=0;left=0;bottom=0;right=0;editable=1;overflow=hidden;whiteSpace=wrap;html=1;" parent="3rgEZMurHxCWyBizHY87-129" vertex="1">
          <mxGeometry width="30" height="30" as="geometry">
            <mxRectangle width="30" height="30" as="alternateBounds" />
          </mxGeometry>
        </mxCell>
        <mxCell id="3rgEZMurHxCWyBizHY87-131" value="Vehicle_Make" style="shape=partialRectangle;connectable=0;fillColor=none;top=0;left=0;bottom=0;right=0;align=left;spacingLeft=6;overflow=hidden;whiteSpace=wrap;html=1;" parent="3rgEZMurHxCWyBizHY87-129" vertex="1">
          <mxGeometry x="30" width="150" height="30" as="geometry">
            <mxRectangle width="150" height="30" as="alternateBounds" />
          </mxGeometry>
        </mxCell>
        <mxCell id="3rgEZMurHxCWyBizHY87-132" value="" style="shape=tableRow;horizontal=0;startSize=0;swimlaneHead=0;swimlaneBody=0;fillColor=none;collapsible=0;dropTarget=0;points=[[0,0.5],[1,0.5]];portConstraint=eastwest;top=0;left=0;right=0;bottom=0;" parent="3rgEZMurHxCWyBizHY87-116" vertex="1">
          <mxGeometry y="180" width="180" height="30" as="geometry" />
        </mxCell>
        <mxCell id="3rgEZMurHxCWyBizHY87-133" value="" style="shape=partialRectangle;connectable=0;fillColor=none;top=0;left=0;bottom=0;right=0;editable=1;overflow=hidden;whiteSpace=wrap;html=1;" parent="3rgEZMurHxCWyBizHY87-132" vertex="1">
          <mxGeometry width="30" height="30" as="geometry">
            <mxRectangle width="30" height="30" as="alternateBounds" />
          </mxGeometry>
        </mxCell>
        <mxCell id="3rgEZMurHxCWyBizHY87-134" value="Vehicle_Model" style="shape=partialRectangle;connectable=0;fillColor=none;top=0;left=0;bottom=0;right=0;align=left;spacingLeft=6;overflow=hidden;whiteSpace=wrap;html=1;" parent="3rgEZMurHxCWyBizHY87-132" vertex="1">
          <mxGeometry x="30" width="150" height="30" as="geometry">
            <mxRectangle width="150" height="30" as="alternateBounds" />
          </mxGeometry>
        </mxCell>
        <mxCell id="3rgEZMurHxCWyBizHY87-135" value="" style="edgeStyle=entityRelationEdgeStyle;fontSize=12;html=1;endArrow=ERmandOne;startArrow=ERmandOne;rounded=0;exitX=1.008;exitY=0;exitDx=0;exitDy=0;exitPerimeter=0;" parent="1" edge="1">
          <mxGeometry width="100" height="100" relative="1" as="geometry">
            <mxPoint x="1350" y="365.5" as="sourcePoint" />
            <mxPoint x="1598.48" y="364.5" as="targetPoint" />
          </mxGeometry>
        </mxCell>
        <mxCell id="3rgEZMurHxCWyBizHY87-136" value="is assigned to/&lt;div&gt;has&lt;/div&gt;" style="text;html=1;align=center;verticalAlign=middle;resizable=0;points=[];autosize=1;strokeColor=none;fillColor=none;" parent="1" vertex="1">
          <mxGeometry x="1420" y="345" width="100" height="40" as="geometry" />
        </mxCell>
      </root>
    </mxGraphModel>
  </diagram>
</mxfile>
